<svg width="1036" height="60" viewBox="0 0 1036 60" fill="none" xmlns="http://www.w3.org/2000/svg">
<path d="M22.73 23.5735L23.874 23.5935L26.982 20.4855L27.132 19.1685C24.662 16.9715 21.412 15.6345 17.855 15.6345C11.415 15.6345 5.97902 20.0165 4.36902 25.9525C4.70902 25.7155 5.43402 25.8925 5.43402 25.8925L11.646 24.8705C11.646 24.8705 11.966 24.3405 12.126 24.3735C13.4594 22.9148 15.2992 22.0198 17.2699 21.8711C19.2407 21.7225 21.1929 22.3313 22.73 23.5735Z" fill="#1A1C3D"/>
<path d="M31.36 25.9635C30.6459 23.3362 29.1807 20.9743 27.144 19.1675L22.742 23.5695C23.6454 24.2955 24.3745 25.215 24.8755 26.2601C25.3765 27.3053 25.6368 28.4495 25.637 29.6085V30.3855C27.779 30.3855 29.517 32.1285 29.517 34.2655C29.517 36.4025 27.774 38.1455 25.637 38.1455H17.875L17.098 38.9255V43.5835L17.875 44.3565H25.637C28.3102 44.3493 30.8718 43.2838 32.7614 41.3929C34.651 39.502 35.7147 36.9397 35.72 34.2665C35.716 30.8305 33.984 27.7865 31.35 25.9635H31.36Z" fill="#1A1C3D"/>
<path d="M10.0939 44.3634H17.8539V38.1514H10.0939C9.54288 38.1517 8.99822 38.0334 8.49695 37.8044L7.37695 38.1474L4.26895 41.2554L3.99695 42.3054C5.7456 43.6481 7.89031 44.3726 10.0949 44.3654L10.0939 44.3634Z" fill="#1A1C3D"/>
<path d="M10.094 24.1765C7.41821 24.1807 4.85322 25.2456 2.96114 27.1377C1.06906 29.0297 0.00423135 31.5947 4.91191e-10 34.2705C-1.53802e-05 35.8286 0.361179 37.3655 1.05521 38.7606C1.74925 40.1556 2.75723 41.3707 4 42.3105L8.5 37.8105C7.81836 37.5038 7.23982 37.0068 6.83392 36.3791C6.42803 35.7515 6.21207 35.02 6.212 34.2725C6.212 32.1305 7.955 30.3925 10.092 30.3925C10.8392 30.3938 11.5702 30.6103 12.1976 31.016C12.825 31.4218 13.3223 31.9996 13.63 32.6805L18.13 28.1805C16.284 25.7505 13.37 24.1805 10.09 24.1805L10.094 24.1765Z" fill="#1A1C3D"/>
<path d="M51.4936 35.4289C49.3736 35.4289 47.5536 34.6789 46.0196 33.1789C44.4856 31.6789 43.7196 29.8749 43.7196 27.7709C43.7196 25.6669 44.4846 23.8629 46.0196 22.3629C47.5546 20.8629 49.3766 20.1119 51.4936 20.1119C52.4648 20.0977 53.429 20.277 54.3302 20.6393C55.2313 21.0015 56.0514 21.5395 56.7426 22.2219L55.2656 23.6989C54.2549 22.7215 52.8984 22.1841 51.4926 22.2039C49.9626 22.2039 48.6626 22.7439 47.5966 23.8309C47.078 24.3458 46.6691 24.9605 46.3947 25.6379C46.1202 26.3152 45.9858 27.0411 45.9996 27.7719C45.9996 29.3179 46.5296 30.6289 47.5966 31.7119C48.098 32.2379 48.7032 32.6542 49.3738 32.9343C50.0445 33.2143 50.766 33.3521 51.4926 33.3389C53.0506 33.3389 54.3376 32.8389 55.3626 31.8049C55.9626 31.2049 56.3626 30.3049 56.5026 29.1699H51.4966V27.0779H58.5406C58.6156 27.4499 58.6406 27.8779 58.6406 28.3779C58.6406 30.4339 58.0376 32.0639 56.8276 33.2729C55.4556 34.7079 53.6776 35.4229 51.4826 35.4229L51.4936 35.4289ZM67.8636 34.0289C66.9036 34.9689 65.7336 35.4289 64.3516 35.4289C62.9696 35.4289 61.7976 34.9589 60.8396 34.0289C59.8816 33.0989 59.4016 31.9159 59.4016 30.5089C59.4016 29.1019 59.8816 27.9289 60.8396 26.9889C61.7976 26.0489 62.9696 25.5889 64.3516 25.5889C65.7336 25.5889 66.9056 26.0589 67.8636 26.9889C68.8216 27.9189 69.3016 29.1049 69.3016 30.5089C69.3016 31.9129 68.8216 33.0889 67.8636 34.0289ZM62.3896 32.6489C62.6391 32.92 62.9427 33.1357 63.2809 33.2819C63.6191 33.4282 63.9842 33.5017 64.3526 33.4979C65.1126 33.4979 65.7666 33.2159 66.3156 32.6479C66.8646 32.0799 67.1376 31.3679 67.1376 30.5079C67.1376 29.6379 66.8676 28.9199 66.3246 28.3579C65.7816 27.7959 65.1266 27.5179 64.3526 27.5179C63.9834 27.5122 63.6172 27.584 63.2775 27.7287C62.9378 27.8734 62.6323 28.0877 62.3806 28.3579C61.8376 28.9179 61.5676 29.6339 61.5676 30.5079C61.5676 31.3659 61.8406 32.0809 62.3896 32.6479V32.6489ZM78.6626 34.0289C77.7026 34.9689 76.5326 35.4289 75.1506 35.4289C73.7686 35.4289 72.5966 34.9589 71.6386 34.0289C70.6806 33.0989 70.2006 31.9159 70.2006 30.5089C70.2006 29.1019 70.6806 27.9289 71.6386 26.9889C72.5966 26.0489 73.7686 25.5889 75.1506 25.5889C76.5326 25.5889 77.7046 26.0589 78.6626 26.9889C79.6206 27.9189 80.1006 29.1049 80.1006 30.5089C80.1006 31.9129 79.6206 33.0889 78.6626 34.0289ZM73.1886 32.6489C73.4381 32.92 73.7417 33.1357 74.0799 33.2819C74.4181 33.4282 74.7832 33.5017 75.1516 33.4979C75.9116 33.4979 76.5656 33.2159 77.1146 32.6479C77.6636 32.0799 77.9366 31.3679 77.9366 30.5079C77.9366 29.6379 77.6666 28.9199 77.1236 28.3579C76.5806 27.7959 75.9256 27.5179 75.1516 27.5179C74.7824 27.5122 74.4162 27.584 74.0765 27.7287C73.7368 27.8734 73.4313 28.0877 73.1796 28.3579C72.6366 28.9179 72.3666 29.6339 72.3666 30.5079C72.3666 31.3659 72.6396 32.0809 73.1886 32.6479V32.6489ZM85.7616 39.8689C84.6666 39.8689 83.7446 39.5749 82.9976 38.9889C82.2506 38.4029 81.7156 37.7249 81.3916 36.9509L83.2796 36.1679C83.4776 36.6419 83.7796 37.0529 84.2126 37.4019C84.6456 37.7509 85.1526 37.9239 85.7646 37.9239C86.5866 37.9239 87.2326 37.6739 87.6976 37.1769C88.1626 36.6799 88.3976 35.9609 88.3976 35.0269V34.3269H88.3226C87.7226 35.0739 86.8456 35.4489 85.7266 35.4489C84.4686 35.4489 83.3666 34.9689 82.4196 34.0109C81.9596 33.558 81.5965 33.0164 81.3524 32.4188C81.1083 31.8212 80.9882 31.1803 80.9996 30.5349C80.988 29.8854 81.1079 29.2403 81.3519 28.6384C81.5959 28.0364 81.9591 27.4899 82.4196 27.0319C83.3646 26.0689 84.4696 25.5849 85.7266 25.5849C86.2866 25.5849 86.7946 25.6899 87.2486 25.9029C87.7026 26.1159 88.0616 26.3769 88.3226 26.6859H88.3976V25.8919H90.4536V34.7489C90.4536 36.4689 90.0156 37.7529 89.1356 38.6089C88.2556 39.4589 87.1336 39.8889 85.7626 39.8889L85.7616 39.8689ZM85.9116 33.4969C86.2681 33.5032 86.6216 33.4303 86.9465 33.2835C87.2714 33.1366 87.5597 32.9196 87.7906 32.6479C88.2946 32.0809 88.5466 31.3749 88.5466 30.5259C88.5466 29.6679 88.2946 28.9499 87.7906 28.3759C87.561 28.102 87.2732 27.8828 86.9481 27.7344C86.6231 27.5859 86.2689 27.512 85.9116 27.5179C85.1516 27.5179 84.5036 27.8059 83.9696 28.3759C83.4356 28.9459 83.1656 29.6639 83.1656 30.5259C83.1656 31.3719 83.4326 32.0809 83.9696 32.6479C84.5066 33.2149 85.1526 33.4969 85.9116 33.4969ZM94.1136 20.6319V35.1319H91.9466V20.6319H94.1136ZM100.054 35.4279C98.6576 35.4279 97.4936 34.9539 96.5596 34.0079C95.6256 33.0619 95.1576 31.8919 95.1576 30.4959C95.1576 29.0519 95.6076 27.8659 96.5116 26.9459C96.9357 26.4996 97.4478 26.1462 98.0154 25.9079C98.5831 25.6697 99.1941 25.5519 99.8096 25.5619C100.407 25.5619 100.963 25.6699 101.473 25.8889C101.947 26.0832 102.378 26.3685 102.743 26.7289C103.046 27.0313 103.316 27.3664 103.547 27.7279C103.737 28.0368 103.9 28.3621 104.033 28.6999L104.258 29.2599L97.6636 31.9919C98.1636 32.9879 98.9636 33.4869 100.056 33.4869C101.052 33.4869 101.863 33.0339 102.484 32.1239L104.164 33.2459C103.789 33.8059 103.261 34.3109 102.576 34.7589C101.891 35.2069 101.048 35.4289 100.052 35.4289L100.054 35.4279ZM97.3076 30.3479L101.708 28.5179C101.582 28.2059 101.354 27.9539 101.008 27.7619C100.66 27.567 100.266 27.4676 99.8676 27.4739C99.2316 27.4739 98.6376 27.7339 98.0846 28.2569C97.5316 28.7799 97.2646 29.4789 97.2896 30.3489L97.3076 30.3479ZM115.638 35.4279C113.668 35.4279 112.018 34.7619 110.686 33.4279C109.354 32.0939 108.686 30.4329 108.686 28.4399C108.686 26.4469 109.352 24.7839 110.686 23.4519C112.02 22.1199 113.669 21.4519 115.638 21.4519C117.655 21.4519 119.294 22.1819 120.551 23.6369L119.356 24.7969C118.456 23.6629 117.206 23.0969 115.636 23.0969C114.176 23.0969 112.95 23.5889 111.936 24.5739C110.922 25.5589 110.432 26.8459 110.432 28.4399C110.432 30.0339 110.932 31.3239 111.936 32.3099C112.94 33.2959 114.169 33.7869 115.636 33.7869C117.242 33.7869 118.613 33.1389 119.736 31.8449L120.931 33.0399C120.304 33.7871 119.518 34.3841 118.631 34.7869C117.689 35.22 116.663 35.4393 115.627 35.4289L115.638 35.4279ZM124.194 35.1319H122.474V21.7549H124.194V35.1319ZM126.997 27.0719C127.882 26.1449 128.997 25.6789 130.379 25.6789C131.761 25.6789 132.876 26.1439 133.761 27.0719C134.646 27.9999 135.088 29.1719 135.088 30.5569C135.088 31.9419 134.648 33.1139 133.761 34.0419C132.874 34.9699 131.761 35.4349 130.379 35.4349C128.997 35.4349 127.882 34.9699 126.997 34.0419C126.112 33.1139 125.67 31.9419 125.67 30.5569C125.67 29.1719 126.11 27.9999 126.997 27.0719ZM128.277 32.9549C128.877 33.5579 129.571 33.8609 130.377 33.8609C131.183 33.8609 131.877 33.5579 132.477 32.9549C133.077 32.3519 133.365 31.5499 133.365 30.5549C133.365 29.5599 133.068 28.7569 132.477 28.1549C131.886 27.5529 131.183 27.2489 130.377 27.2489C129.571 27.2489 128.877 27.5519 128.277 28.1549C127.677 28.7579 127.389 29.5599 127.389 30.5549C127.389 31.5499 127.686 32.3529 128.277 32.9549ZM144.597 35.1319H142.952V33.8619H142.877C142.617 34.2969 142.217 34.6689 141.682 34.9619C141.147 35.2549 140.582 35.4219 139.982 35.4219C138.835 35.4219 137.968 35.0739 137.377 34.3749C136.786 33.6759 136.489 32.7419 136.489 31.5719V25.9659H138.209V31.2899C138.209 32.9979 138.962 33.8499 140.469 33.8499C140.806 33.857 141.14 33.7827 141.443 33.6334C141.745 33.484 142.007 33.264 142.207 32.9919C142.651 32.4281 142.888 31.7287 142.879 31.0109V25.9659H144.599V35.1229L144.597 35.1319ZM150.425 35.4289C149.242 35.4289 148.219 34.9609 147.361 34.0269C146.503 33.0929 146.073 31.9349 146.073 30.5509C146.073 29.1669 146.503 28.0089 147.361 27.0749C148.219 26.1409 149.243 25.6729 150.425 25.6729C151.121 25.6729 151.749 25.8229 152.305 26.1199C152.861 26.4169 153.275 26.7919 153.548 27.2419H153.623L153.548 25.9719V21.7519H155.268V35.1319H153.623V33.8619H153.548C153.275 34.3089 152.861 34.6839 152.305 34.9839C151.75 35.2779 151.122 35.4289 150.425 35.4289ZM150.705 33.8589C151.093 33.8641 151.478 33.7869 151.833 33.6323C152.189 33.4776 152.509 33.2491 152.77 32.9619C153.337 32.3649 153.62 31.5599 153.62 30.5619C153.62 29.5639 153.338 28.7489 152.77 28.1619C152.509 27.8746 152.189 27.6461 151.833 27.4915C151.478 27.3368 151.093 27.2596 150.705 27.2649C149.907 27.2649 149.222 27.5679 148.649 28.1709C148.076 28.7739 147.791 29.5759 147.791 30.5709C147.791 31.5659 148.076 32.3689 148.649 32.9709C148.907 33.2591 149.225 33.489 149.579 33.6452C149.934 33.8014 150.317 33.8804 150.705 33.8769V33.8589Z" fill="#1A1C3D"/>
<path fill-rule="evenodd" clip-rule="evenodd" d="M271.132 42.616V33.77L277.168 35.827V44.783L271.132 42.616ZM284.31 42.616V33.77L278.274 35.827V44.783L284.31 42.616ZM277.86 31.388L283.524 33.214L277.86 35.137L271.76 33.107L277.86 31.388ZM263.945 30.258V21.4L269.981 23.456V32.412L263.945 30.258ZM277.125 30.257V21.4L271.089 23.456V32.412L277.125 30.257ZM270.675 19.027L276.339 20.854L270.675 22.777L264.575 20.747L270.675 19.027ZM278.03 30.257V21.4L284.066 23.456V32.412L278.03 30.257ZM291.208 30.257V21.4L285.172 23.456V32.412L291.208 30.257ZM284.768 19.027L290.432 20.854L284.768 22.777L278.668 20.747L284.768 19.027ZM285.226 17.897V9.05004L291.262 11.107V20.062L285.226 17.897ZM298.396 17.896V9.05004L292.36 11.107V20.062L298.396 17.896ZM291.945 6.67004L297.609 8.49604L291.945 10.419L285.845 8.38904L291.945 6.67004ZM299.3 17.897V9.05004L305.336 11.107V20.062L299.3 17.897ZM312.468 17.897V9.05004L306.432 11.107V20.062L312.468 17.897ZM306.028 6.67004L311.692 8.49604L306.028 10.419L299.928 8.38904L306.028 6.67004Z" fill="#1A1C3D"/>
<path d="M302.266 39.0181L300.238 46.062H299.358L297.758 40.8301L296.31 46.062H295.412L293.305 39.0181H294.405L295.94 44.2681L297.4 39.0181H298.204L299.792 44.284L301.37 39.0181H302.255H302.266ZM307.874 43.96L308.894 44.16C308.706 44.7645 308.325 45.2901 307.808 45.655C307.268 46.05 306.636 46.2471 305.908 46.2471C304.948 46.2471 304.17 45.909 303.576 45.231C302.982 44.553 302.676 43.6661 302.676 42.5681C302.676 41.4461 302.976 40.54 303.602 39.848C303.889 39.5142 304.246 39.2481 304.648 39.0688C305.05 38.8895 305.487 38.8015 305.927 38.8111C306.847 38.8111 307.585 39.129 308.145 39.766C308.705 40.403 308.991 41.3541 309.005 42.6221H303.892C303.892 43.6871 304.114 44.406 304.56 44.778C305.006 45.15 305.476 45.336 305.972 45.336C306.867 45.336 307.498 44.8741 307.864 43.9491L307.874 43.96ZM307.814 41.8161C307.804 41.4211 307.74 41.0701 307.619 40.7631C307.498 40.4561 307.294 40.195 307.006 39.979C306.718 39.763 306.373 39.655 305.969 39.655C305.71 39.6509 305.454 39.7009 305.216 39.8018C304.978 39.9027 304.764 40.0524 304.588 40.2411C304.21 40.6411 303.988 41.1561 303.951 41.8161H307.813H307.814ZM310.984 46.062H310.457V36.562H311.554V40.202C312.054 39.289 312.754 38.8321 313.627 38.8321C314.433 38.8321 315.109 39.1521 315.654 39.7891C316.199 40.4261 316.471 41.3531 316.471 42.5671C316.471 43.6141 316.201 44.492 315.667 45.202C315.133 45.912 314.433 46.267 313.575 46.267C312.619 46.267 311.875 45.8131 311.375 44.9071L310.975 46.072L310.984 46.062ZM311.554 43.302C311.604 44.025 311.827 44.55 312.219 44.876C312.611 45.202 313.026 45.376 313.463 45.376C314.02 45.376 314.469 45.1341 314.811 44.6501C315.153 44.1661 315.323 43.503 315.323 42.662C315.323 41.755 315.158 41.042 314.829 40.522C314.5 40.002 314.042 39.744 313.457 39.744C312.997 39.744 312.583 39.929 312.213 40.298C311.843 40.667 311.613 41.145 311.555 41.73V43.3L311.554 43.302ZM319.267 44.236L320.313 44.0201C320.545 44.9051 321.281 45.347 322.517 45.347C322.972 45.347 323.359 45.2451 323.675 45.041C323.824 44.9527 323.946 44.8261 324.03 44.6743C324.113 44.5226 324.155 44.3512 324.15 44.1781C324.15 43.6281 323.747 43.278 322.942 43.128L321.459 42.8461C320.879 42.7341 320.416 42.516 320.072 42.19C319.728 41.864 319.557 41.435 319.557 40.89C319.557 40.29 319.791 39.8061 320.261 39.4081C320.731 39.0101 321.361 38.812 322.156 38.812C323.684 38.812 324.626 39.409 324.986 40.604L323.982 40.82C323.694 40.09 323.102 39.723 322.207 39.723C321.761 39.723 321.395 39.8231 321.11 39.9971C320.976 40.0746 320.866 40.1866 320.791 40.3214C320.715 40.4561 320.678 40.6087 320.682 40.7631C320.682 41.2811 321.047 41.6061 321.776 41.7411L323.146 41.993C324.582 42.253 325.299 42.9501 325.299 44.0811C325.305 44.3883 325.235 44.6924 325.095 44.966C324.955 45.2396 324.75 45.4743 324.497 45.649C323.963 46.047 323.252 46.2471 322.363 46.2471C320.693 46.2471 319.663 45.5731 319.267 44.2271V44.236ZM331.133 43.96L332.153 44.16C331.968 44.762 331.606 45.26 331.067 45.655C330.528 46.05 329.895 46.2471 329.167 46.2471C328.207 46.2471 327.429 45.909 326.835 45.231C326.241 44.553 325.935 43.6661 325.935 42.5681C325.935 41.4461 326.243 40.54 326.861 39.848C327.148 39.5142 327.505 39.2481 327.907 39.0688C328.309 38.8895 328.746 38.8015 329.186 38.8111C330.104 38.8111 330.844 39.129 331.403 39.766C331.962 40.403 332.249 41.3541 332.263 42.6221H327.151C327.151 43.6871 327.373 44.406 327.818 44.778C328.263 45.15 328.734 45.336 329.231 45.336C330.126 45.336 330.757 44.8741 331.123 43.9491L331.133 43.96ZM331.073 41.8161C331.063 41.4211 330.998 41.0701 330.878 40.7631C330.758 40.4561 330.554 40.195 330.266 39.979C329.978 39.763 329.633 39.655 329.229 39.655C328.97 39.6507 328.714 39.7006 328.476 39.8016C328.238 39.9025 328.023 40.0522 327.847 40.2411C327.469 40.6411 327.247 41.1561 327.211 41.8161H331.073ZM334.55 46.062H333.453V39.0181H334.413V40.66C334.753 39.89 335.093 39.3921 335.433 39.1651C335.773 38.9381 336.133 38.8231 336.481 38.8231C336.625 38.8251 336.769 38.8337 336.913 38.849V39.8951H336.691C336.088 39.8951 335.587 40.1191 335.188 40.5671C334.789 41.0151 334.576 41.604 334.548 42.333V46.063L334.55 46.062ZM343.73 39.0181L341.298 46.062H340.161L337.648 39.0181H338.862L340.817 44.743L342.757 39.0181H343.73ZM345.78 36.55V37.767H344.608V36.55H345.782H345.78ZM345.754 39.017V46.0611H344.668V39.017H345.765H345.754ZM351.488 43.5951L352.475 43.7691C352.335 44.5471 352.027 45.156 351.549 45.597C351.071 46.038 350.474 46.257 349.749 46.257C348.779 46.257 348.049 45.897 347.529 45.182C347.009 44.467 346.766 43.582 346.766 42.557C346.766 41.487 347.034 40.5971 347.571 39.8871C348.108 39.1771 348.838 38.822 349.771 38.822C350.537 38.822 351.151 39.052 351.614 39.522C352.077 39.992 352.364 40.572 352.474 41.3L351.487 41.488C351.301 40.325 350.74 39.744 349.802 39.744C349.522 39.7346 349.244 39.8013 348.999 39.9369C348.754 40.0724 348.55 40.2719 348.41 40.514C348.085 41.027 347.922 41.692 347.922 42.51C347.922 43.41 348.082 44.1101 348.406 44.6101C348.545 44.845 348.745 45.0384 348.984 45.1701C349.223 45.3018 349.494 45.3671 349.767 45.3591C350.672 45.3591 351.245 44.775 351.487 43.606L351.488 43.5951ZM358.664 43.96L359.684 44.16C359.496 44.7645 359.115 45.2901 358.598 45.655C358.058 46.05 357.426 46.2471 356.698 46.2471C355.738 46.2471 354.958 45.909 354.365 45.231C353.772 44.553 353.465 43.6661 353.465 42.5681C353.465 41.4461 353.765 40.54 354.391 39.848C354.678 39.5142 355.035 39.2481 355.437 39.0688C355.839 38.8895 356.276 38.8015 356.716 38.8111C357.636 38.8111 358.376 39.129 358.934 39.766C359.492 40.403 359.78 41.3541 359.794 42.6221H354.682C354.682 43.6871 354.904 44.406 355.35 44.778C355.796 45.15 356.266 45.336 356.762 45.336C357.657 45.336 358.288 44.8741 358.654 43.9491L358.664 43.96ZM358.604 41.8161C358.594 41.4211 358.53 41.0701 358.409 40.7631C358.283 40.4492 358.071 40.1773 357.797 39.979C357.509 39.763 357.164 39.655 356.76 39.655C356.501 39.6504 356.245 39.7002 356.007 39.8011C355.77 39.9021 355.556 40.052 355.38 40.2411C355.004 40.6411 354.78 41.1561 354.743 41.8161H358.605H358.604ZM360.424 44.236L361.47 44.0201C361.702 44.9051 362.437 45.347 363.674 45.347C364.129 45.347 364.514 45.2451 364.832 45.041C364.981 44.9526 365.103 44.8259 365.186 44.6742C365.27 44.5224 365.311 44.3511 365.306 44.1781C365.306 43.6281 364.903 43.278 364.099 43.128L362.616 42.8461C362.036 42.7341 361.573 42.516 361.229 42.19C360.885 41.864 360.714 41.435 360.714 40.89C360.714 40.29 360.948 39.8061 361.418 39.4081C361.888 39.0101 362.518 38.812 363.313 38.812C364.841 38.812 365.783 39.409 366.143 40.604L365.139 40.82C364.851 40.09 364.259 39.723 363.364 39.723C362.918 39.723 362.564 39.8231 362.267 39.9971C362.133 40.0746 362.023 40.1866 361.948 40.3214C361.872 40.4561 361.835 40.6087 361.839 40.7631C361.839 41.2811 362.204 41.6061 362.933 41.7411L364.303 41.993C365.739 42.253 366.456 42.9501 366.456 44.0811C366.462 44.3883 366.392 44.6924 366.252 44.966C366.112 45.2396 365.907 45.4743 365.654 45.649C365.12 46.047 364.409 46.2471 363.52 46.2471C361.852 46.2471 360.82 45.5731 360.425 44.2271L360.424 44.236Z" fill="#1A1C3D" stroke="#1A1C3D" stroke-width="0.213"/>
<path fill-rule="evenodd" clip-rule="evenodd" d="M335.688 23.964V22.272C335.686 22.2152 335.697 22.1586 335.718 22.1058C335.739 22.0531 335.77 22.0051 335.811 21.9649C335.851 21.9247 335.899 21.8931 335.952 21.872C336.004 21.8508 336.061 21.8406 336.118 21.842H343.701C343.943 21.842 344.138 22.018 344.139 22.269V23.719C344.137 23.962 343.932 24.279 343.569 24.784L339.642 30.392C341.1 30.358 342.642 30.576 343.967 31.322C344.267 31.49 344.345 31.738 344.369 31.982V33.787C344.369 34.037 344.097 34.324 343.811 34.174C341.477 32.951 338.381 32.817 335.799 34.188C335.535 34.328 335.259 34.045 335.259 33.796V32.08C335.259 31.805 335.264 31.336 335.541 30.917L340.091 24.387H336.128C336.071 24.3896 336.013 24.3805 335.96 24.3602C335.906 24.34 335.858 24.309 335.817 24.2692C335.775 24.2294 335.743 24.1816 335.721 24.1288C335.699 24.076 335.688 24.0192 335.689 23.962L335.688 23.964ZM308.551 34.532H306.244C306.024 34.518 305.849 34.352 305.832 34.132L305.833 22.292C305.833 22.055 306.033 21.866 306.278 21.866L308.426 21.865C308.651 21.877 308.831 22.047 308.846 22.263V23.809H308.889C309.449 22.314 310.504 21.616 311.925 21.616C313.368 21.616 314.272 22.314 314.919 23.809C315.479 22.314 316.749 21.616 318.106 21.616C319.076 21.616 320.13 22.016 320.776 22.912C321.508 23.908 321.358 25.354 321.358 26.625L321.356 34.097C321.356 34.334 321.156 34.523 320.911 34.523H318.608C318.378 34.508 318.194 34.325 318.194 34.098V27.83C318.194 27.33 318.237 26.086 318.129 25.612C317.957 24.815 317.429 24.59 316.773 24.59C316.213 24.59 315.631 24.964 315.393 25.562C315.155 26.16 315.178 27.157 315.178 27.83V34.106C315.178 34.343 314.978 34.532 314.733 34.532H312.428C312.196 34.517 312.014 34.334 312.014 34.107L312.012 27.83C312.012 26.51 312.227 24.566 310.592 24.566C308.934 24.566 308.998 26.459 308.998 27.83V34.106C308.998 34.343 308.798 34.532 308.553 34.532H308.551ZM349.711 21.625C353.108 21.625 354.945 24.565 354.945 28.303C354.945 31.916 352.915 34.781 349.711 34.781C346.378 34.781 344.561 31.841 344.561 28.178C344.561 24.491 346.399 21.625 349.711 21.625ZM349.733 24.347C348.045 24.347 347.938 26.664 347.938 28.109C347.938 29.554 347.918 32.339 349.712 32.339C351.486 32.339 351.572 30.152 351.572 28.632C351.572 27.636 351.53 26.439 351.232 25.492C350.975 24.67 350.462 24.346 349.736 24.346L349.733 24.347ZM359.861 34.532H357.563C357.333 34.517 357.149 34.334 357.149 34.107L357.145 22.262C357.165 22.045 357.345 21.876 357.588 21.876L359.728 21.875C359.823 21.8786 359.914 21.9129 359.988 21.9727C360.062 22.0326 360.114 22.1148 360.138 22.207V24.007H360.182C360.828 22.387 361.732 21.615 363.326 21.615C364.359 21.615 365.372 21.989 366.018 23.01C366.621 23.957 366.621 25.55 366.621 26.698V34.148C366.595 34.348 366.407 34.521 366.179 34.521H363.866C363.653 34.507 363.481 34.351 363.466 34.148V27.718C363.466 26.423 363.616 24.518 362.023 24.518C361.463 24.518 360.946 24.892 360.688 25.465C360.365 26.188 360.321 26.91 360.321 27.708V34.084C360.317 34.321 360.118 34.51 359.871 34.51L359.861 34.532ZM329.906 28.877C329.906 29.777 329.928 30.525 329.474 31.324C329.107 31.974 328.524 32.374 327.877 32.374C326.992 32.374 326.474 31.7 326.474 30.701C326.474 28.737 328.237 28.379 329.904 28.379V28.879L329.906 28.877ZM332.232 34.502C332.079 34.639 331.859 34.648 331.687 34.556C330.921 33.919 330.784 33.626 330.365 33.018C329.099 34.318 328.202 34.695 326.562 34.695C324.62 34.695 323.109 33.495 323.109 31.099C323.109 29.226 324.123 27.953 325.569 27.329C326.821 26.779 328.569 26.679 329.907 26.529V26.229C329.907 25.679 329.95 25.031 329.627 24.556C329.347 24.131 328.807 23.956 328.332 23.956C327.452 23.956 326.67 24.406 326.477 25.342C326.437 25.55 326.285 25.755 326.077 25.766L323.841 25.524C323.641 25.481 323.441 25.33 323.497 25.042C324.011 22.329 326.461 21.51 328.657 21.51C329.779 21.51 331.257 21.81 332.131 22.66C333.254 23.71 333.145 25.107 333.145 26.63V30.224C333.145 31.304 333.595 31.779 334.015 32.362C334.162 32.562 334.195 32.822 334.007 32.975L332.237 34.507L332.231 34.501L332.232 34.502ZM299.925 28.877C299.925 29.777 299.947 30.525 299.493 31.324C299.126 31.974 298.543 32.374 297.896 32.374C297.011 32.374 296.493 31.7 296.493 30.701C296.493 28.737 298.255 28.379 299.923 28.379V28.879L299.925 28.877ZM302.251 34.502C302.098 34.639 301.878 34.648 301.706 34.556C300.94 33.919 300.802 33.626 300.384 33.018C299.118 34.318 298.221 34.695 296.581 34.695C294.639 34.695 293.128 33.495 293.128 31.099C293.128 29.226 294.142 27.953 295.588 27.329C296.84 26.779 298.588 26.679 299.926 26.529V26.229C299.926 25.679 299.969 25.031 299.646 24.556C299.366 24.131 298.826 23.956 298.351 23.956C297.471 23.956 296.689 24.406 296.496 25.342C296.456 25.55 296.296 25.755 296.096 25.766L293.86 25.524C293.66 25.481 293.46 25.33 293.516 25.042C294.029 22.329 296.479 21.51 298.676 21.51C299.798 21.51 301.276 21.81 302.151 22.66C303.273 23.71 303.165 25.107 303.165 26.63V30.224C303.165 31.304 303.615 31.779 304.035 32.362C304.182 32.562 304.215 32.822 304.028 32.975L302.268 34.507L302.262 34.501L302.251 34.502Z" fill="#1A1C3D"/>
<path d="M536.107 29.3987H534.315V22.402C534.306 21.7098 534.332 21.0174 534.393 20.3277C534.335 20.6732 534.229 21.0091 534.08 21.3259L530.798 29.4637H529.548L526.26 21.4072L525.947 20.3222C526.025 20.7833 526.025 21.4743 526.025 22.4742V29.48H524.306V18.6423H526.884L529.778 25.8651L530.246 27.0951C530.365 26.6473 530.521 26.2106 530.714 25.7895L533.684 18.5668H536.185L536.107 29.3987ZM539.467 20.024C539.323 20.0316 539.178 20.0081 539.043 19.9551C538.908 19.9021 538.787 19.8207 538.686 19.7166C538.476 19.5503 538.36 19.2928 538.373 19.0258C538.343 18.7555 538.463 18.4907 538.686 18.3349C538.909 18.1551 539.182 18.0478 539.467 18.0276C539.612 18.0199 539.756 18.0434 539.891 18.0964C540.026 18.1495 540.148 18.2308 540.249 18.3349C540.458 18.5012 540.575 18.7587 540.561 19.0258C540.591 19.2961 540.471 19.5608 540.249 19.7166C540.148 19.8207 540.026 19.9021 539.891 19.9551C539.756 20.0081 539.612 20.0316 539.467 20.024ZM540.326 29.3987H538.529V21.6388H540.326V29.3987ZM548.373 29.0933C547.748 29.4768 546.966 29.6362 546.107 29.6362C544.935 29.6362 543.997 29.2528 543.293 28.5601C542.59 27.8674 542.208 26.9471 542.208 25.7931C542.208 24.4875 542.599 23.4875 543.38 22.7188C544.161 21.9501 545.178 21.5667 546.505 21.5667C547.15 21.5668 547.788 21.6972 548.38 21.9501V23.5596C547.881 23.1884 547.282 22.9743 546.661 22.9449C545.882 22.9449 545.254 23.1746 544.785 23.7133C544.304 24.2616 544.053 24.9739 544.082 25.7027C544.082 26.4711 544.317 27.1617 544.785 27.6233C545.268 28.0846 545.915 28.3333 546.583 28.3141C547.245 28.3054 547.883 28.0603 548.38 27.6233V29.0938L548.373 29.0933ZM554.703 23.3315C554.42 23.1654 554.094 23.0857 553.764 23.1018C553.221 23.1018 552.825 23.3315 552.435 23.7926C552.045 24.2537 551.892 24.8776 551.892 25.7132V29.4026H550.094V21.6388H551.892V23.2518C552.04 22.7584 552.308 22.3097 552.673 21.9462C553.015 21.6377 553.462 21.4725 553.923 21.4851C554.166 21.4816 554.406 21.5342 554.626 21.6388L554.703 23.3315ZM559.467 29.6355C558.218 29.6355 557.279 29.2521 556.574 28.5594C555.869 27.8668 555.489 26.8685 555.489 25.7192C555.489 24.4136 555.879 23.4135 556.661 22.6448C557.442 21.8761 558.458 21.5598 559.708 21.5598C560.957 21.5598 561.896 21.9432 562.601 22.6448C563.306 23.3464 563.609 24.3302 563.609 25.6358C563.642 26.7364 563.253 27.8081 562.523 28.6323C561.65 29.308 560.571 29.663 559.467 29.6401V29.6355ZM559.545 22.8739C558.842 22.8739 558.296 23.1041 557.905 23.5647C557.515 24.0258 557.279 24.7168 557.279 25.554C557.279 26.3912 557.514 27.0131 557.905 27.4746C558.296 27.9362 558.844 28.1654 559.545 28.1654C560.246 28.1654 560.795 27.9357 561.185 27.4746C561.575 27.0135 561.728 26.3985 561.728 25.4853C561.728 24.6408 561.572 23.9506 561.185 23.496C560.966 23.2894 560.709 23.1287 560.427 23.0231C560.145 22.9175 559.845 22.8693 559.545 22.8812L559.545 22.8739ZM564.86 29.1689V27.5518C565.563 28.0129 566.267 28.3203 567.048 28.3203C568.142 28.3203 568.688 28.0129 568.688 27.3981C568.672 27.2346 568.619 27.0769 568.532 26.937C568.439 26.7946 568.302 26.6867 568.142 26.6296C567.967 26.5394 567.786 26.4624 567.599 26.3999L566.896 26.1702C566.603 26.057 566.317 25.9291 566.037 25.7867C565.815 25.6521 565.606 25.4978 565.411 25.3256C565.237 25.152 565.104 24.942 565.021 24.7109C564.924 24.4658 564.871 24.2057 564.865 23.9424C564.86 23.5953 564.94 23.2524 565.1 22.9442C565.251 22.6422 565.499 22.3991 565.804 22.2534C566.116 22.0236 566.429 21.946 566.82 21.7923C567.205 21.7034 567.597 21.6519 567.992 21.6386C568.656 21.6156 569.319 21.72 569.945 21.946V23.4852C569.393 23.1106 568.736 22.9206 568.07 22.9426C567.858 22.9248 567.645 22.9506 567.444 23.0186C567.288 23.0947 567.131 23.0947 566.975 23.1721C566.836 23.2316 566.725 23.3416 566.662 23.4795C566.6 23.597 566.573 23.7303 566.585 23.8629C566.572 24.0207 566.599 24.1791 566.662 24.324C566.724 24.4621 566.836 24.5719 566.975 24.6314C567.15 24.7216 567.331 24.7986 567.518 24.8611C567.753 24.9372 567.909 25.0146 568.221 25.0909C568.519 25.251 568.832 25.3795 569.156 25.4743C569.469 25.5503 569.625 25.7817 569.859 25.9354C570.034 26.1257 570.191 26.3315 570.328 26.5502C570.424 26.8217 570.477 27.1067 570.484 27.3947C570.484 27.7781 570.406 28.1632 570.171 28.3929C569.999 28.6807 569.758 28.9208 569.469 29.091C569.12 29.2723 568.757 29.4264 568.384 29.5521C567.201 29.8508 565.95 29.7141 564.859 29.1669L564.86 29.1689ZM575.725 29.6355C574.475 29.6355 573.537 29.2521 572.831 28.5594C572.126 27.8668 571.746 26.8685 571.746 25.7192C571.746 24.4136 572.137 23.4135 572.918 22.6448C573.699 21.8761 574.716 21.5598 575.965 21.5598C577.215 21.5598 578.153 21.9432 578.859 22.6448C579.564 23.3464 579.875 24.3357 579.875 25.6413C579.908 26.7419 579.52 27.8136 578.79 28.6378C577.905 29.3036 576.823 29.6555 575.716 29.6378L575.725 29.6355ZM575.803 22.8739C575.1 22.8739 574.553 23.1041 574.163 23.5647C573.772 24.0258 573.537 24.7168 573.537 25.554C573.537 26.3912 573.772 27.0131 574.163 27.4746C574.553 27.9362 575.102 28.1654 575.803 28.1654C576.504 28.1654 577.052 27.9357 577.443 27.4746C577.833 27.0135 577.985 26.3985 577.985 25.4853C577.985 24.6408 577.83 23.9506 577.443 23.496C577.225 23.2867 576.967 23.1233 576.684 23.0155C576.402 22.9077 576.101 22.8576 575.799 22.8684L575.803 22.8739ZM586.033 19.4106C585.774 19.2542 585.476 19.1745 585.174 19.1808C584.315 19.1808 583.845 19.6419 583.845 20.6399V21.7165H585.642V23.0999H583.845V29.4818H582.054V23.0981H580.725V21.7146H582.054V20.4846C582.054 19.6401 582.289 19.0255 582.833 18.564C583.26 18.2361 583.76 18.0156 584.291 17.9211C584.821 17.8267 585.366 17.861 585.88 18.0211V19.4046H586.03L586.033 19.4106ZM591.194 29.3224C590.882 29.4756 590.413 29.5521 589.787 29.5521C588.225 29.5521 587.521 28.8613 587.521 27.4002V23.0223H586.192V21.6388H587.521V19.8705L589.319 19.4094V21.7151H591.194V23.0986H589.319V26.9467C589.294 27.2955 589.376 27.6438 589.554 27.9449C589.71 28.1746 590.022 28.2523 590.413 28.2523C590.691 28.2562 590.964 28.1727 591.192 28.0136V29.3192L591.194 29.3224ZM535.259 45.3561H533.226L532.21 42.591H527.833L526.894 45.3579H524.864L529.005 34.5237H531.032L535.259 45.3561ZM531.741 41.1301L530.179 36.828C530.11 36.6018 530.058 36.3709 530.024 36.1372C529.989 36.3709 529.937 36.6018 529.868 36.828L528.383 41.1301H531.741ZM542.379 38.3592L538.158 43.9653H542.377V45.3488H535.65V44.6708L540.028 38.9797H536.122V37.5962H542.451V38.3594L542.379 38.3592ZM550.808 45.3561H549.01V44.1284C548.777 44.5638 548.427 44.9247 547.998 45.1695C547.569 45.4142 547.08 45.5329 546.587 45.5119C544.712 45.5119 543.773 44.4358 543.773 42.208V37.5958H545.571V42.0518C545.571 43.4347 546.117 44.1261 547.211 44.1261C547.458 44.1361 547.705 44.0928 547.934 43.9992C548.164 43.9056 548.37 43.7638 548.54 43.5835C548.891 43.1481 549.082 42.6056 549.082 42.0463V37.5958H550.878L550.808 45.3561ZM557.685 39.2869C557.401 39.1208 557.076 39.0411 556.746 39.0571C556.203 39.0571 555.807 39.2869 555.416 39.748C555.026 40.2091 554.874 40.833 554.874 41.6686V45.3577H553.076V37.5958H554.874V39.2088C555.021 38.7154 555.29 38.2667 555.655 37.9032C555.993 37.5976 556.433 37.4327 556.892 37.4421C557.135 37.4386 557.375 37.4912 557.595 37.5958L557.685 39.2869ZM565.654 41.976H560.264C560.264 42.6668 560.499 43.2816 560.967 43.6668C561.357 44.0503 561.983 44.2816 562.764 44.2816C563.613 44.3004 564.442 44.0293 565.115 43.5131V44.8966C564.407 45.3608 563.466 45.5929 562.294 45.5929C561.789 45.6099 561.285 45.5223 560.814 45.3356C560.344 45.1489 559.917 44.8672 559.56 44.5079C558.857 43.8171 558.544 42.817 558.544 41.5114C558.507 40.433 558.897 39.3835 559.629 38.5908C559.976 38.2139 560.399 37.9159 560.871 37.7169C561.342 37.5178 561.851 37.4224 562.363 37.4371C563.448 37.4371 564.238 37.7444 564.864 38.4353C565.49 39.1261 565.723 40.0483 565.723 41.2755L565.654 41.976ZM563.935 40.746C563.935 40.1312 563.779 39.5938 563.466 39.2869C563.317 39.1026 563.125 38.957 562.908 38.8625C562.69 38.768 562.453 38.7274 562.217 38.744C561.969 38.734 561.722 38.7773 561.493 38.8709C561.264 38.9645 561.057 39.1063 560.887 39.2867C560.497 39.6701 560.345 40.1312 560.262 40.7457L563.935 40.746Z" fill="#1A1C3D"/>
<path fill-rule="evenodd" clip-rule="evenodd" d="M503.799 19.0379L497.972 30.7738L508.233 42.6644L489.192 44.826L518.739 45.1352L503.799 19.0379ZM502.65 14.405L489.272 25.6007L479.341 42.3559L487.794 41.5084L502.65 14.405Z" fill="#1A1C3D"/>
<path d="M720.272 47.723V40.743C727.662 40.743 733.397 33.415 730.56 25.638C729.52 22.78 727.212 20.474 724.334 19.433C716.557 16.616 709.229 22.333 709.229 29.721H702.268C702.268 17.94 713.668 8.75597 726.008 12.614C731.398 14.308 735.704 18.594 737.378 23.984C741.236 36.334 732.05 47.723 720.272 47.723Z" fill="#1A1C3D"/>
<path fill-rule="evenodd" clip-rule="evenodd" d="M720.292 33.822V40.782H713.332V33.822H720.292ZM713.332 40.782V46.1H708.004V40.772L713.332 40.782ZM708.004 40.782H703.534V36.312H708.004V40.782Z" fill="#1A1C3D"/>
<path d="M756.022 13.867C754.442 12.754 752.422 12.215 750.122 12.215H745.095V28.195H750.168C752.466 28.195 754.468 27.62 756.068 26.435C756.93 25.835 757.612 24.963 758.115 23.885C758.582 22.808 758.833 21.515 758.833 20.115C758.833 18.715 758.583 17.458 758.115 16.381C757.612 15.304 756.93 14.441 756.032 13.867H756.022ZM748.05 14.907H749.63C751.39 14.907 752.826 15.267 753.93 15.947C755.15 16.701 755.76 18.102 755.76 20.112C755.76 22.195 755.16 23.667 753.93 24.457C752.89 25.139 751.452 25.497 749.657 25.497H748.041V14.9L748.05 14.907ZM762.306 12C761.803 12 761.408 12.18 761.049 12.503C760.885 12.6609 760.756 12.8509 760.67 13.061C760.583 13.2711 760.541 13.4968 760.546 13.724C760.546 14.227 760.726 14.622 761.049 14.981C761.372 15.304 761.803 15.484 762.306 15.484C762.773 15.4802 763.222 15.3006 763.563 14.981C763.886 14.658 764.066 14.227 764.066 13.724C764.07 13.4968 764.028 13.2711 763.942 13.061C763.855 12.8509 763.726 12.6609 763.563 12.503C763.203 12.18 762.763 12 762.306 12ZM760.868 16.92H763.705V28.195H760.868V16.92ZM774.012 17.853C773.15 17.099 772.217 16.633 771.175 16.633C769.595 16.633 768.302 17.173 767.297 18.249C766.292 19.289 765.753 20.655 765.753 22.307C765.753 23.887 766.256 25.252 767.261 26.329C768.266 27.369 769.595 27.909 771.139 27.909C772.216 27.909 773.186 27.622 773.939 27.011V27.261C773.939 28.195 773.689 28.913 773.185 29.416C772.681 29.919 772 30.17 771.138 30.17C769.845 30.17 769.018 29.667 768.014 28.303L766.074 30.17L766.11 30.242C766.54 30.817 767.15 31.392 768.013 31.93C768.839 32.47 769.916 32.756 771.173 32.756C772.861 32.756 774.225 32.253 775.231 31.212C776.237 30.171 776.739 28.806 776.739 27.118V16.884H773.939V17.854L774.012 17.853ZM773.268 24.532C772.765 25.107 772.118 25.358 771.328 25.358C770.502 25.358 769.892 25.071 769.388 24.532C768.885 23.957 768.67 23.239 768.67 22.332C768.67 21.398 768.92 20.68 769.388 20.106C769.856 19.532 770.538 19.28 771.328 19.28C772.154 19.28 772.764 19.567 773.268 20.106C773.771 20.681 774.022 21.436 774.022 22.332C774.022 23.228 773.772 23.948 773.268 24.532ZM779.218 16.92H782.055V28.195H779.218V16.92ZM780.655 12C780.152 12 779.757 12.18 779.398 12.503C779.234 12.6609 779.105 12.8509 779.019 13.061C778.932 13.2711 778.89 13.4968 778.895 13.724C778.895 14.227 779.075 14.622 779.398 14.981C779.721 15.304 780.152 15.484 780.655 15.484C781.122 15.4802 781.571 15.3006 781.912 14.981C782.235 14.658 782.415 14.227 782.415 13.724C782.419 13.4968 782.377 13.2711 782.291 13.061C782.204 12.8509 782.075 12.6609 781.912 12.503C781.552 12.18 781.158 12 780.655 12ZM788.268 13.867H785.468V16.919H783.852V19.504H785.468V24.172C785.468 25.644 785.755 26.686 786.33 27.296C786.905 27.906 787.946 28.194 789.382 28.194L790.747 28.158H790.891V25.573L789.921 25.609C789.239 25.609 788.808 25.501 788.591 25.249C788.374 24.997 788.268 24.496 788.268 23.742V19.47H790.925V16.885H788.268V13.87V13.867ZM804.211 12.18H807.048V28.195H804.211V12.18Z" fill="#1A1C3D"/>
<path d="M800.656 17.78C799.794 17.062 798.609 16.667 797.136 16.667C796.202 16.667 795.306 16.882 794.516 17.267C793.762 17.627 793.044 18.272 792.576 19.062L792.612 19.098L794.442 20.822C795.196 19.637 796.022 19.206 797.135 19.206C797.735 19.206 798.212 19.35 798.607 19.673C798.967 19.996 799.182 20.391 799.182 20.893V21.433C798.464 21.218 797.782 21.11 797.099 21.11C795.699 21.11 794.549 21.433 793.699 22.08C792.849 22.727 792.406 23.696 792.406 24.917C792.406 25.994 792.766 26.82 793.519 27.467C794.273 28.067 795.171 28.401 796.249 28.401C797.327 28.401 798.332 27.971 799.265 27.216V28.15H802.065V20.896C801.957 19.566 801.525 18.49 800.665 17.772L800.656 17.78ZM795.629 23.884C795.952 23.669 796.429 23.561 796.994 23.561C797.676 23.561 798.394 23.705 799.149 23.956V25.069C798.549 25.644 797.713 25.931 796.707 25.931C796.204 25.931 795.845 25.823 795.557 25.608C795.431 25.5106 795.33 25.3852 795.261 25.2418C795.193 25.0984 795.159 24.9409 795.162 24.782C795.152 24.6041 795.19 24.4268 795.272 24.2688C795.354 24.1108 795.477 23.9778 795.629 23.884Z" fill="#1A1C3D"/>
<path d="M770.44 43.7C769.937 44.275 769.4 44.777 769.004 45.03C768.608 45.283 768.106 45.425 767.532 45.425C766.706 45.425 766.024 45.138 765.485 44.491C764.945 43.891 764.659 43.055 764.659 42.121C764.659 41.151 764.946 40.361 765.485 39.751C766.024 39.141 766.705 38.817 767.532 38.817C768.43 38.817 769.399 39.392 770.225 40.361L772.092 38.566C770.872 36.986 769.327 36.232 767.46 36.232C765.916 36.232 764.56 36.807 763.438 37.92C762.316 39.033 761.786 40.434 761.786 42.12C761.786 43.806 762.361 45.208 763.438 46.32C764.551 47.435 765.878 48.02 767.458 48.02C769.505 48.02 771.158 47.122 772.306 45.506L770.438 43.7H770.44ZM782.11 38.027C781.715 37.452 781.176 37.022 780.494 36.697C779.812 36.372 779.022 36.194 778.16 36.194C776.58 36.194 775.287 36.769 774.318 37.918C773.384 39.068 772.882 40.468 772.882 42.155C772.882 43.879 773.422 45.279 774.426 46.355C775.466 47.432 776.832 47.971 778.52 47.971C780.423 47.971 782.003 47.171 783.188 45.673L783.26 45.601L781.393 43.806C781.213 44.021 780.963 44.236 780.747 44.452C780.46 44.702 780.207 44.919 779.921 45.052C779.475 45.2723 778.982 45.383 778.485 45.375C777.685 45.375 777.049 45.16 776.545 44.693C776.078 44.263 775.791 43.688 775.719 42.969H783.224L783.26 41.929C783.26 41.211 783.152 40.493 782.973 39.846C782.794 39.199 782.506 38.589 782.111 38.016L782.11 38.027ZM775.898 40.684C776.042 40.144 776.293 39.679 776.652 39.354C777.047 38.959 777.55 38.779 778.124 38.779C778.806 38.779 779.344 38.959 779.704 39.354C780.042 39.7183 780.245 40.1878 780.279 40.684H775.898Z" fill="#1A1C3D"/>
<path d="M792.99 37.3C792.128 36.582 790.943 36.187 789.47 36.187C788.536 36.187 787.64 36.402 786.85 36.787C786.096 37.147 785.378 37.792 784.91 38.582L784.946 38.618L786.776 40.342C787.53 39.157 788.356 38.726 789.469 38.726C790.069 38.726 790.546 38.87 790.941 39.193C791.301 39.516 791.516 39.911 791.516 40.413V40.953C790.798 40.738 790.116 40.63 789.433 40.63C788.033 40.63 786.883 40.953 786.033 41.6C785.183 42.247 784.74 43.216 784.74 44.437C784.74 45.514 785.1 46.34 785.853 46.987C786.607 47.587 787.505 47.921 788.583 47.921C789.661 47.921 790.666 47.491 791.599 46.736V47.67H794.399V40.416C794.291 39.086 793.859 38.01 792.999 37.292L792.99 37.3ZM787.963 43.404C788.286 43.189 788.763 43.081 789.328 43.081C790.01 43.081 790.728 43.225 791.483 43.476V44.589C790.883 45.164 790.047 45.451 789.041 45.451C788.538 45.451 788.179 45.343 787.891 45.128C787.765 45.0306 787.664 44.9052 787.595 44.7618C787.527 44.6184 787.493 44.4609 787.496 44.302C787.486 44.1242 787.524 43.9469 787.606 43.7888C787.688 43.6308 787.811 43.4978 787.963 43.404Z" fill="#1A1C3D"/>
<path d="M805.198 37.515C804.398 36.617 803.295 36.185 801.894 36.185C800.781 36.185 799.847 36.508 799.164 37.155V36.473H796.399V47.713H799.236V41.5C799.236 40.638 799.451 39.956 799.836 39.5C800.221 39.044 800.77 38.782 801.524 38.782C802.17 38.782 802.637 38.997 802.996 39.428C803.355 39.859 803.536 40.468 803.536 41.188V47.723H806.373V41.188C806.373 39.644 805.978 38.388 805.188 37.525L805.198 37.515ZM752.091 47.965C749.9 47.9648 747.8 47.0945 746.251 45.5457C744.702 43.9969 743.832 41.8964 743.832 39.706C743.832 37.5157 744.702 35.4151 746.251 33.8663C747.8 32.3175 749.9 31.4473 752.091 31.447C754.281 31.4473 756.382 32.3175 757.93 33.8663C759.479 35.4151 760.349 37.5157 760.35 39.706C760.349 41.8964 759.479 43.9969 757.93 45.5457C756.382 47.0945 754.281 47.9648 752.091 47.965ZM752.091 34.365C749.146 34.365 746.741 36.771 746.741 39.715C746.741 42.659 749.147 45.065 752.091 45.065C755.035 45.065 757.441 42.659 757.441 39.715C757.441 36.771 755.035 34.365 752.091 34.365Z" fill="#1A1C3D"/>
<path d="M936.092 14.33V16.474H951.342V14.33H936.092ZM953.504 14.33V16.474H975.238C975.238 16.474 973.018 14.33 970.078 14.33H953.504ZM979.501 14.33V16.474H992.648L991.868 14.33H979.501ZM1002.08 14.33L1001.3 16.474H1014.33V14.33H1002.08ZM936.092 18.5V20.644H951.342V18.5H936.092ZM953.504 18.503V20.643H977.758C977.758 20.643 977.475 18.993 976.981 18.503H953.504ZM979.501 18.503V20.643H994.101L993.379 18.503H979.501ZM1000.51 18.503L999.793 20.643H1014.32V18.503H1000.51ZM940.475 22.67V24.817H947.08V22.67H940.475ZM957.887 22.67V24.817H964.492V22.67H957.887ZM970.917 22.67V24.817H977.522C977.522 24.817 977.942 23.683 977.942 22.67H970.917ZM983.885 22.67V24.817H995.585L994.805 22.67H983.885ZM999.078 22.67L998.294 24.817H1010.06V22.67H999.078ZM940.476 26.843V28.987H947.081V26.843H940.476ZM957.888 26.843V28.987H974.758C974.758 28.987 976.168 27.887 976.618 26.843H957.888ZM983.885 26.843V28.987H990.49V27.793L990.91 28.987H1003.01L1003.46 27.793V28.987H1010.06V26.843H997.665L997.007 28.659L996.347 26.843H983.885ZM940.475 31.013V33.157H947.08V31.013H940.475ZM957.887 31.013V33.157H976.617C976.167 32.117 974.757 31.013 974.757 31.013H957.887ZM983.884 31.013V33.157H990.489V31.013H983.884ZM991.689 31.013L992.489 33.157H1001.56L1002.32 31.013H991.689ZM1003.46 31.013V33.157H1010.06V31.013H1003.46ZM940.477 35.183V37.327H947.082V35.183H940.477ZM957.889 35.183V37.327H964.494V35.183H957.889ZM970.919 35.183V37.327H977.943C977.943 36.315 977.523 35.183 977.523 35.183H970.919ZM983.887 35.183V37.327H990.492V35.183H983.887ZM993.191 35.183L993.965 37.327H1000.04L1000.82 35.183H993.191ZM1003.46 35.183V37.327H1010.06V35.183H1003.46ZM936.214 39.353V41.5H951.464V39.353H936.214ZM953.507 39.353V41.5H976.985C977.479 41.008 977.762 39.353 977.762 39.353H953.507ZM979.623 39.353V41.5H990.488V39.353H979.623ZM994.693 39.353L995.489 41.5H998.583L999.33 39.353H994.693ZM1003.46 39.353V41.5H1014.45V39.353H1003.46ZM936.214 43.526V45.67H951.464V43.526H936.214ZM953.507 43.526V45.666H970.078C973.018 45.666 975.238 43.526 975.238 43.526H953.507ZM979.623 43.526V45.67H990.488V43.526H979.623ZM996.203 43.526L996.968 45.664L997.1 45.667L997.877 43.527L996.203 43.526ZM1003.46 43.526V45.67H1014.45V43.526H1003.46Z" fill="#1A1C3D"/>
</svg>
