<svg width="11" height="11" viewBox="0 0 11 11" fill="none" xmlns="http://www.w3.org/2000/svg">
<g clip-path="url(#clip0_1707_16349)">
<path opacity="0.4" d="M4.11623 1.47837C2.1255 2.00991 0.946793 4.04316 1.47746 6.01669C2.00827 7.99077 4.05033 9.16493 6.04159 8.63324C7.51889 8.23879 8.55015 7.01655 8.76576 5.60479C8.80009 5.38001 9.01014 5.22562 9.23492 5.25995C9.4597 5.29428 9.61409 5.50433 9.57976 5.72911C9.3162 7.45484 8.05645 8.94753 6.25402 9.4288C3.82805 10.0766 1.33213 8.64733 0.682269 6.23051C0.0322609 3.81313 1.4773 1.33071 3.9038 0.682807C6.18189 0.0745292 8.52081 1.29741 9.33633 3.44989C9.38269 3.57227 9.36812 3.7094 9.29707 3.81929C9.22602 3.92919 9.10696 3.99877 8.97634 4.00672L7.94288 4.06963C7.71591 4.08345 7.52072 3.91066 7.50691 3.6837C7.50173 3.59868 7.50691 3.50595 7.56296 3.44989L7.98729 3.02556C8.06029 2.95256 8.07011 2.83695 8.00582 2.75618C7.11192 1.63315 5.5997 1.08226 4.11623 1.47837Z" fill="#525866"/>
<path fill-rule="evenodd" clip-rule="evenodd" d="M5.05551 2.94922C5.28819 2.94922 5.47681 3.13784 5.47681 3.37052V4.88119L6.19601 5.60039C6.36053 5.76492 6.36053 6.03167 6.19601 6.19619C6.03148 6.36072 5.76473 6.36072 5.6002 6.19619L4.75761 5.3536C4.6786 5.27459 4.63422 5.16743 4.63422 5.0557V3.37052C4.63422 3.13784 4.82284 2.94922 5.05551 2.94922Z" fill="#525866"/>
</g>
<defs>
<clipPath id="clip0_1707_16349">
<rect width="10.1111" height="10.1111" fill="white"/>
</clipPath>
</defs>
</svg>
