<svg width="11" height="11" viewBox="0 0 11 11" fill="none" xmlns="http://www.w3.org/2000/svg">
<path opacity="0.4" d="M1.15683 4.10767H8.95425C9.15074 4.10767 9.24903 4.10767 9.31067 4.16912C9.37234 4.23059 9.37264 4.32829 9.37327 4.52364C9.37382 4.68588 9.37382 4.85508 9.37382 5.03151V5.07967C9.37382 6.0026 9.37382 6.72753 9.29773 7.2935C9.21975 7.8735 9.05671 8.33363 8.69515 8.69519C8.3336 9.05675 7.87341 9.21979 7.29346 9.29777C6.72749 9.3739 6.00256 9.37386 5.07963 9.37386H5.03143C4.1085 9.37386 3.38359 9.3739 2.81761 9.29777C2.23764 9.21979 1.77747 9.05675 1.41591 8.69519C1.05436 8.33363 0.891303 7.8735 0.813326 7.2935C0.737235 6.72753 0.73724 6.0026 0.737244 5.07967V5.03147C0.737244 4.85512 0.737244 4.68588 0.737775 4.52364C0.738411 4.32829 0.738731 4.23059 0.800388 4.16912C0.86204 4.10767 0.960303 4.10767 1.15683 4.10767Z" fill="#525866"/>
<path fill-rule="evenodd" clip-rule="evenodd" d="M5.03117 0.737305H5.07932C6.00221 0.737296 6.72718 0.737292 7.29315 0.813387C7.87315 0.891364 8.33333 1.05442 8.69489 1.41598C9.05645 1.77753 9.21949 2.23769 9.29747 2.81767C9.30686 2.88776 9.31512 2.96029 9.32237 3.03533C9.34179 3.2369 9.35152 3.33768 9.28883 3.40671C9.22614 3.47573 9.1212 3.47573 8.91135 3.47573H1.19917C0.989303 3.47573 0.884371 3.47573 0.821678 3.40671C0.758989 3.33768 0.768704 3.2369 0.788138 3.03532C0.795372 2.96029 0.803625 2.88776 0.813049 2.81767C0.891027 2.23769 1.05408 1.77753 1.41564 1.41598C1.77719 1.05442 2.23736 0.891364 2.81734 0.813387C3.38331 0.737292 4.10823 0.737296 5.03117 0.737305ZM2.94492 1.68522C2.71225 1.68522 2.52363 1.87384 2.52363 2.10652C2.52363 2.33919 2.71225 2.52781 2.94492 2.52781H2.94871C3.18138 2.52781 3.37001 2.33919 3.37001 2.10652C3.37001 1.87384 3.18138 1.68522 2.94871 1.68522H2.94492ZM4.20881 2.10652C4.20881 1.87384 4.39741 1.68522 4.63009 1.68522H4.63389C4.86657 1.68522 5.05518 1.87384 5.05518 2.10652C5.05518 2.33919 4.86657 2.52781 4.63389 2.52781H4.63009C4.39741 2.52781 4.20881 2.33919 4.20881 2.10652Z" fill="#525866"/>
<path fill-rule="evenodd" clip-rule="evenodd" d="M3.26506 7.79404C3.26506 6.80517 4.0667 6.00353 5.05557 6.00353C6.04444 6.00353 6.84608 6.80517 6.84608 7.79404C6.84608 7.96854 6.98755 8.11001 7.16205 8.11001C7.33655 8.11001 7.47802 7.96854 7.47802 7.79404C7.47802 6.45617 6.39344 5.37158 5.05557 5.37158C3.71769 5.37158 2.63312 6.45617 2.63312 7.79404C2.63312 7.96854 2.77458 8.11001 2.94909 8.11001C3.1236 8.11001 3.26506 7.96854 3.26506 7.79404ZM5.57688 7.2983C5.70028 7.1749 5.70028 6.97482 5.57688 6.85147C5.45349 6.72807 5.25341 6.72807 5.13001 6.85147L4.53422 7.44727C4.41082 7.57066 4.41082 7.7707 4.53422 7.89409C4.65761 8.01749 4.85769 8.01749 4.98104 7.89409L5.57688 7.2983Z" fill="#525866"/>
</svg>
