<svg width="11" height="11" viewBox="0 0 11 11" fill="none" xmlns="http://www.w3.org/2000/svg">
<path opacity="0.4" d="M5.09737 1.3654C3.57986 0.592387 2.35356 1.04016 1.72535 1.52828C1.63411 1.59895 1.52022 1.68718 1.44479 1.84132C1.36887 1.99645 1.3693 2.14797 1.36968 2.28405L1.36963 8.74219C1.36963 8.97486 1.55825 9.16348 1.79093 9.16348C2.0236 9.16348 2.21222 8.97486 2.21222 8.74219L2.21222 6.30196C2.21222 6.23508 2.21222 6.20164 2.22898 6.17243C2.24574 6.14322 2.27232 6.12767 2.32547 6.09659C2.83901 5.79627 3.7122 5.58198 4.81053 6.14146C6.37559 6.9387 7.7293 6.61612 8.39671 6.25129C8.46296 6.21579 8.59328 6.14591 8.66877 6.01863C8.74479 5.89043 8.74324 5.72784 8.74242 5.64599L8.74243 2.458C8.74244 2.29807 8.74245 2.15255 8.73016 2.04002C8.71916 1.93924 8.69038 1.75508 8.53457 1.63659C8.44686 1.5699 8.35065 1.55062 8.2776 1.54626C8.2057 1.54196 8.13353 1.55078 8.06958 1.5621C7.94692 1.58383 7.77339 1.63195 7.5922 1.6822C6.99519 1.84774 6.10933 1.88089 5.09737 1.3654Z" fill="#2F2F2F"/>
<path d="M1.72535 1.52723C1.63411 1.59791 1.52022 1.68613 1.44479 1.84027C1.36887 1.99541 1.3693 2.14692 1.36968 2.28301L1.36963 8.74114C1.36963 8.97381 1.55825 9.16244 1.79093 9.16244C2.0236 9.16244 2.21222 8.97381 2.21222 8.74114L2.21222 6.30092C2.21222 6.27483 2.21222 6.25383 2.21322 6.23619L2.22893 5.95643C2.22897 5.95494 2.22898 6.12755 2.22898 6.12755L2.22898 6.10403V1.22095C2.03385 1.31243 1.86486 1.41884 1.72535 1.52723Z" fill="#2F2F2F"/>
</svg>
