<svg width="11" height="11" viewBox="0 0 11 11" fill="none" xmlns="http://www.w3.org/2000/svg">
<path opacity="0.4" d="M4.98157 0.529623C5.03082 0.525933 5.08028 0.525933 5.12953 0.529623C5.34169 0.545523 5.51362 0.641258 5.67072 0.764167C5.81847 0.879775 5.98193 1.04325 6.17312 1.23445L6.46887 1.49861C6.46887 1.49861 6.66549 1.5312 6.9376 1.5312C7.23723 1.53118 7.49333 1.53117 7.698 1.55869C7.91653 1.58807 8.12305 1.65393 8.29022 1.8211C8.45739 1.98827 8.52328 2.19481 8.55264 2.41334C8.58015 2.61799 8.58015 2.8741 8.58015 3.17373L8.60248 3.61772L8.87687 3.9382C9.06806 4.12939 9.23156 4.29286 9.34717 4.44061C9.4701 4.59771 9.56582 4.76965 9.5817 4.98181C9.58541 5.03106 9.58541 5.08052 9.5817 5.12977C9.56582 5.34193 9.4701 5.51387 9.34717 5.67097C9.23156 5.81872 9.0681 5.98218 8.87691 6.17336L8.60248 6.49384L8.58015 6.93785C8.58015 7.23747 8.58015 7.49358 8.55264 7.69824C8.52328 7.91677 8.45739 8.12329 8.29022 8.29046C8.12305 8.45763 7.91653 8.52352 7.698 8.55289C7.49333 8.5804 7.23723 8.5804 6.9376 8.5804L6.4936 8.60273L6.17312 8.87712C5.98193 9.0683 5.81847 9.23181 5.67072 9.34741C5.51362 9.47034 5.34169 9.56606 5.12953 9.58194C5.08028 9.58565 5.03082 9.58565 4.98157 9.58194C4.7694 9.56606 4.59747 9.47034 4.44037 9.34741C4.29262 9.23181 4.12916 9.06834 3.93799 8.87716L3.61748 8.60273L3.17349 8.5804C2.87386 8.5804 2.61775 8.5804 2.41309 8.55289C2.19457 8.52352 1.98803 8.45763 1.82086 8.29046C1.65369 8.12329 1.58782 7.91677 1.55845 7.69824C1.53093 7.49358 1.53094 7.23747 1.53096 6.93785L1.50861 6.49384L1.2342 6.17336C1.04301 5.98218 0.879531 5.81872 0.763923 5.67097C0.641014 5.51387 0.545279 5.34193 0.529379 5.12977C0.525689 5.08052 0.525689 5.03106 0.529379 4.98181C0.545279 4.76965 0.641014 4.59771 0.763923 4.44061C0.879531 4.29286 1.04301 4.1294 1.2342 3.93822L1.50861 3.61772L1.53096 3.17373C1.53094 2.87409 1.53093 2.61799 1.55845 2.41334C1.58782 2.19481 1.65369 1.98827 1.82086 1.8211C1.98803 1.65393 2.19457 1.58807 2.41309 1.55869C2.61775 1.53117 2.87385 1.53118 3.17348 1.5312C3.44562 1.5312 3.61748 1.50885 3.61748 1.50885L3.93797 1.23445C4.12915 1.04325 4.29262 0.879775 4.44037 0.764167C4.59747 0.641258 4.7694 0.545523 4.98157 0.529623Z" fill="#525866"/>
<path d="M3.26501 5.05565C3.26501 4.06678 4.06665 3.26514 5.05552 3.26514C6.04439 3.26514 6.84603 4.06678 6.84603 5.05565C6.84603 6.04451 6.04439 6.84616 5.05552 6.84616C4.06665 6.84616 3.26501 6.04451 3.26501 5.05565Z" fill="#525866"/>
</svg>
