<svg width="11" height="11" viewBox="0 0 11 11" fill="none" xmlns="http://www.w3.org/2000/svg">
<g clip-path="url(#clip0_1707_16339)">
<path opacity="0.3" d="M5.07962 0.737305C6.00255 0.737299 6.72747 0.737295 7.29345 0.813388C7.87343 0.891365 8.33359 1.05442 8.69515 1.41598C9.0567 1.77753 9.21976 2.2377 9.29774 2.81768C9.37383 3.38365 9.37382 4.10856 9.37382 5.0315V5.03151V5.07968V5.07969C9.37382 6.00262 9.37383 6.72753 9.29774 7.29351C9.21976 7.87349 9.0567 8.33365 8.69515 8.69521C8.33359 9.05676 7.87343 9.21982 7.29345 9.2978C6.72747 9.37389 6.00256 9.37389 5.07963 9.37388H5.07962H5.03145H5.03144C4.1085 9.37389 3.38359 9.37389 2.81761 9.2978C2.23763 9.21982 1.77747 9.05676 1.41592 8.69521C1.05436 8.33365 0.891304 7.87349 0.813327 7.29351C0.737234 6.72753 0.737238 6.00262 0.737244 5.07968V5.0315C0.737238 4.10857 0.737234 3.38365 0.813327 2.81768C0.891303 2.2377 1.05436 1.77753 1.41592 1.41598C1.77747 1.05442 2.23763 0.891365 2.81761 0.813388C3.38359 0.737295 4.10851 0.737299 5.03144 0.737305H5.07962Z" fill="#525866"/>
<path fill-rule="evenodd" clip-rule="evenodd" d="M2.94909 5.16064C3.1236 5.16064 3.26506 5.30211 3.26506 5.47662L3.26506 7.1618C3.26506 7.33631 3.1236 7.47777 2.94909 7.47777C2.77458 7.47777 2.63312 7.33631 2.63312 7.1618L2.63312 5.47662C2.63312 5.30211 2.77458 5.16064 2.94909 5.16064Z" fill="#525866"/>
<path fill-rule="evenodd" clip-rule="evenodd" d="M5.0556 2.63306C5.2301 2.63306 5.37157 2.77452 5.37157 2.94903L5.37157 7.16199C5.37157 7.3365 5.2301 7.47796 5.0556 7.47796C4.88109 7.47796 4.73962 7.3365 4.73962 7.16199L4.73962 2.94903C4.73962 2.77452 4.88109 2.63306 5.0556 2.63306Z" fill="#525866"/>
<path fill-rule="evenodd" clip-rule="evenodd" d="M7.1621 4.31812C7.33661 4.31812 7.47807 4.45958 7.47807 4.63409L7.47807 7.16187C7.47807 7.33637 7.33661 7.47784 7.1621 7.47784C6.9876 7.47784 6.84613 7.33637 6.84613 7.16187L6.84613 4.63409C6.84613 4.45958 6.9876 4.31812 7.1621 4.31812Z" fill="#525866"/>
</g>
<defs>
<clipPath id="clip0_1707_16339">
<rect width="10.1111" height="10.1111" fill="white"/>
</clipPath>
</defs>
</svg>
