<svg width="13" height="13" viewBox="0 0 13 13" fill="none" xmlns="http://www.w3.org/2000/svg">
<path d="M2.02222 4.04438L3.03333 10.111H9.1L10.1111 4.04438M2.02222 4.04438L2.88987 4.7385C3.45404 5.18982 3.73612 5.4155 4.02046 5.45053C4.26956 5.48122 4.52117 5.41813 4.72636 5.27359C4.96056 5.10862 5.10287 4.77658 5.38745 4.11251L6.06666 2.52771M2.02222 4.04438C2.30143 4.04438 2.52777 3.81803 2.52777 3.53882C2.52777 3.25962 2.30143 3.03327 2.02222 3.03327C1.74301 3.03327 1.51666 3.25962 1.51666 3.53882C1.51666 3.81803 1.74301 4.04438 2.02222 4.04438ZM10.1111 4.04438L9.24347 4.73851C8.67927 5.18982 8.39722 5.4155 8.11285 5.45053C7.86376 5.48122 7.61215 5.41813 7.40694 5.27359C7.17277 5.10862 7.03045 4.77658 6.74588 4.11251L6.06666 2.52771M10.1111 4.04438C10.3903 4.04438 10.6167 3.81803 10.6167 3.53882C10.6167 3.25962 10.3903 3.03327 10.1111 3.03327C9.83189 3.03327 9.60555 3.25962 9.60555 3.53882C9.60555 3.81803 9.83189 4.04438 10.1111 4.04438ZM6.06666 2.52771C6.34588 2.52771 6.57222 2.30137 6.57222 2.02216C6.57222 1.74295 6.34588 1.5166 6.06666 1.5166C5.78744 1.5166 5.56111 1.74295 5.56111 2.02216C5.56111 2.30137 5.78744 2.52771 6.06666 2.52771ZM6.06666 2.02216H6.07172M10.1111 3.53882H10.1162M2.02222 3.53882H2.02727" stroke="#525866" stroke-width="1.01111" stroke-linecap="round" stroke-linejoin="round"/>
</svg>
