<svg xmlns="http://www.w3.org/2000/svg" viewBox="0 0 30 30" fill="none">
  <path d="M15 2C7.82 2 2 7.82 2 15c0 5.74 3.72 10.61 8.89 12.32.65.12.89-.28.89-.63 0-.31-.01-1.13-.02-2.22-3.62.79-4.38-1.74-4.38-1.74-.59-1.5-1.44-1.9-1.44-1.9-1.18-.81.09-.79.09-.79 1.3.09 1.99 1.34 1.99 1.34 1.16 1.98 3.04 1.41 3.78 1.08.12-.84.45-1.41.82-1.73-2.89-.33-5.93-1.45-5.93-6.44 0-1.42.51-2.59 1.34-3.5-.13-.33-.58-1.65.13-3.44 0 0 1.09-.35 3.57 1.34A12.4 12.4 0 0115 6.84c1.1.01 2.22.15 3.26.44 2.47-1.69 3.56-1.34 3.56-1.34.71 1.79.27 3.11.13 3.44.83.91 1.34 2.08 1.34 3.5 0 5-3.05 6.11-5.95 6.43.47.4.89 1.2.89 2.42 0 1.75-.02 3.16-.02 3.59 0 .35.24.76.9.63C24.28 25.6 28 20.74 28 15c0-7.18-5.82-13-13-13z" fill="#333"/>
</svg>
