<svg width="11" height="11" viewBox="0 0 11 11" fill="none" xmlns="http://www.w3.org/2000/svg">
<path opacity="0.4" d="M5.07963 0.737061C6.00256 0.737056 6.72749 0.737052 7.29346 0.813143C7.87341 0.89112 8.3336 1.05417 8.69515 1.41573C9.05671 1.77729 9.21975 2.23745 9.29773 2.81743C9.37382 3.3834 9.37382 4.10832 9.37382 5.03125V5.07945C9.37382 6.00238 9.37382 6.7273 9.29773 7.29327C9.21975 7.87323 9.05671 8.33341 8.69515 8.69497C8.3336 9.05653 7.87341 9.21957 7.29346 9.29755C6.72749 9.37364 6.00256 9.37364 5.07963 9.37364H5.03143C4.1085 9.37364 3.38359 9.37364 2.81761 9.29755C2.23764 9.21957 1.77747 9.05653 1.41591 8.69497C1.05436 8.33341 0.891303 7.87323 0.813326 7.29327C0.737235 6.7273 0.73724 6.00238 0.737244 5.07945V5.03125C0.73724 4.10832 0.737235 3.38341 0.813326 2.81743C0.891303 2.23745 1.05436 1.77729 1.41591 1.41573C1.77747 1.05418 2.23764 0.89112 2.81761 0.813143C3.38359 0.737052 4.10851 0.737056 5.03143 0.737061H5.07963Z" fill="#525866"/>
<path fill-rule="evenodd" clip-rule="evenodd" d="M5.05551 3.58087C4.82283 3.58087 4.63422 3.7695 4.63422 4.00217C4.63422 4.23485 4.4456 4.42347 4.21292 4.42347C3.98025 4.42347 3.79163 4.23485 3.79163 4.00217C3.79163 3.30415 4.35747 2.73828 5.05551 2.73828C5.75356 2.73828 6.3194 3.30415 6.3194 4.00217C6.3194 4.25314 6.2458 4.48822 6.11891 4.68547C6.04274 4.80381 5.95443 4.91571 5.87582 5.01345C5.86112 5.03169 5.84675 5.04947 5.83276 5.06679C5.76767 5.14734 5.70987 5.21892 5.65628 5.29256C5.52311 5.47557 5.47681 5.59341 5.47681 5.68736C5.47681 5.92004 5.2882 6.10865 5.05551 6.10865C4.82283 6.10865 4.63422 5.92004 4.63422 5.68736C4.63422 5.31594 4.81656 5.01455 4.97496 4.79682C5.04233 4.70426 5.11622 4.6128 5.18161 4.53199C5.19454 4.51594 5.20718 4.50035 5.21936 4.48523C5.2973 4.38837 5.36058 4.30685 5.41033 4.22954C5.45238 4.16418 5.47681 4.08667 5.47681 4.00217C5.47681 3.7695 5.2882 3.58087 5.05551 3.58087Z" fill="#525866"/>
<path fill-rule="evenodd" clip-rule="evenodd" d="M4.63422 6.95133C4.63422 6.71864 4.82199 6.53003 5.05362 6.53003H5.05741C5.28904 6.53003 5.47681 6.71864 5.47681 6.95133C5.47681 7.18401 5.28904 7.37262 5.05741 7.37262H5.05362C4.82199 7.37262 4.63422 7.18401 4.63422 6.95133Z" fill="#525866"/>
</svg>
