<svg width="90" height="50" viewBox="479 12 90 50" fill="none" xmlns="http://www.w3.org/2000/svg">
<path fill-rule="evenodd" clip-rule="evenodd" d="M503.799 19.0379L497.972 30.7738L508.233 42.6644L489.192 44.826L518.739 45.1352L503.799 19.0379ZM502.65 14.405L489.272 25.6007L479.341 42.3559L487.794 41.5084L502.65 14.405Z" fill="#1A1C3D"/>
<path d="M536.107 29.3987H534.315V22.402C534.306 21.7098 534.332 21.0174 534.393 20.3277C534.335 20.6732 534.229 21.0091 534.08 21.3259L530.798 29.4637H529.548L526.26 21.4072L525.947 20.3222C526.025 20.7833 526.025 21.4743 526.025 22.4742V29.48H524.306V18.6423H526.884L529.778 25.8651L530.246 27.0951C530.365 26.6473 530.521 26.2106 530.714 25.7895L533.684 18.5668H536.185L536.107 29.3987ZM539.467 20.024C539.323 20.0316 539.178 20.0081 539.043 19.9551C538.908 19.9021 538.787 19.8207 538.686 19.7166C538.476 19.5503 538.36 19.2928 538.373 19.0258C538.343 18.7555 538.463 18.4907 538.686 18.3349C538.909 18.1551 539.182 18.0478 539.467 18.0276C539.612 18.0199 539.756 18.0434 539.891 18.0964C540.026 18.1495 540.148 18.2308 540.249 18.3349C540.458 18.5012 540.575 18.7587 540.561 19.0258C540.591 19.2961 540.471 19.5608 540.249 19.7166C540.148 19.8207 540.026 19.9021 539.891 19.9551C539.756 20.0081 539.612 20.0316 539.467 20.024ZM540.326 29.3987H538.529V21.6388H540.326V29.3987ZM548.373 29.0933C547.748 29.4768 546.966 29.6362 546.107 29.6362C544.935 29.6362 543.997 29.2528 543.293 28.5601C542.59 27.8674 542.208 26.9471 542.208 25.7931C542.208 24.4875 542.599 23.4875 543.38 22.7188C544.161 21.9501 545.178 21.5667 546.505 21.5667C547.15 21.5668 547.788 21.6972 548.38 21.9501V23.5596C547.881 23.1884 547.282 22.9743 546.661 22.9449C545.882 22.9449 545.254 23.1746 544.785 23.7133C544.304 24.2616 544.053 24.9739 544.082 25.7027C544.082 26.4711 544.317 27.1617 544.785 27.6233C545.268 28.0846 545.915 28.3333 546.583 28.3141C547.245 28.3054 547.883 28.0603 548.38 27.6233V29.0938L548.373 29.0933ZM554.703 23.3315C554.42 23.1654 554.094 23.0857 553.764 23.1018C553.221 23.1018 552.825 23.3315 552.435 23.7926C552.045 24.2537 551.892 24.8776 551.892 25.7132V29.4026H550.094V21.6388H551.892V23.2518C552.04 22.7584 552.308 22.3097 552.673 21.9462C553.015 21.6377 553.462 21.4725 553.923 21.4851C554.166 21.4816 554.406 21.5342 554.626 21.6388L554.703 23.3315ZM559.467 29.6355C558.218 29.6355 557.279 29.2521 556.574 28.5594C555.869 27.8668 555.489 26.8685 555.489 25.7192C555.489 24.4136 555.879 23.4135 556.661 22.6448C557.442 21.8761 558.458 21.5598 559.708 21.5598C560.957 21.5598 561.896 21.9432 562.601 22.6448C563.306 23.3464 563.609 24.3302 563.609 25.6358C563.642 26.7364 563.253 27.8081 562.523 28.6323C561.65 29.308 560.571 29.663 559.467 29.6401V29.6355ZM559.545 22.8739C558.842 22.8739 558.296 23.1041 557.905 23.5647C557.515 24.0258 557.279 24.7168 557.279 25.554C557.279 26.3912 557.514 27.0131 557.905 27.4746C558.296 27.9362 558.844 28.1654 559.545 28.1654C560.246 28.1654 560.795 27.9357 561.185 27.4746C561.575 27.0135 561.728 26.3985 561.728 25.4853C561.728 24.6408 561.572 23.9506 561.185 23.496C560.966 23.2894 560.709 23.1287 560.427 23.0231C560.145 22.9175 559.845 22.8693 559.545 22.8812L559.545 22.8739ZM564.86 29.1689V27.5518C565.563 28.0129 566.267 28.3203 567.048 28.3203C568.142 28.3203 568.688 28.0129 568.688 27.3981C568.672 27.2346 568.619 27.0769 568.532 26.937C568.439 26.7946 568.302 26.6867 568.142 26.6296C567.967 26.5394 567.786 26.4624 567.599 26.3999L566.896 26.1702C566.603 26.057 566.317 25.9291 566.037 25.7867C565.815 25.6521 565.606 25.4978 565.411 25.3256C565.237 25.152 565.104 24.942 565.021 24.7109C564.924 24.4658 564.871 24.2057 564.865 23.9424C564.86 23.5953 564.94 23.2524 565.1 22.9442C565.251 22.6422 565.499 22.3991 565.804 22.2534C566.116 22.0236 566.429 21.946 566.82 21.7923C567.205 21.7034 567.597 21.6519 567.992 21.6386C568.656 21.6156 569.319 21.72 569.945 21.946V23.4852C569.393 23.1106 568.736 22.9206 568.07 22.9426C567.858 22.9248 567.645 22.9506 567.444 23.0186C567.288 23.0947 567.131 23.0947 566.975 23.1721C566.836 23.2316 566.725 23.3416 566.662 23.4795C566.6 23.597 566.573 23.7303 566.585 23.8629C566.572 24.0207 566.599 24.1791 566.662 24.324C566.724 24.4621 566.836 24.5719 566.975 24.6314C567.15 24.7216 567.331 24.7986 567.518 24.8611C567.753 24.9372 567.909 25.0146 568.221 25.0909C568.519 25.251 568.832 25.3795 569.156 25.4743C569.469 25.5503 569.625 25.7817 569.859 25.9354C570.034 26.1257 570.191 26.3315 570.328 26.5502C570.424 26.8217 570.477 27.1067 570.484 27.3947C570.484 27.7781 570.406 28.1632 570.171 28.3929C569.999 28.6807 569.758 28.9208 569.469 29.091C569.12 29.2723 568.757 29.4264 568.384 29.5521C567.201 29.8508 565.95 29.7141 564.859 29.1669L564.86 29.1689ZM575.725 29.6355C574.475 29.6355 573.537 29.2521 572.831 28.5594C572.126 27.8668 571.746 26.8685 571.746 25.7192C571.746 24.4136 572.137 23.4135 572.918 22.6448C573.699 21.8761 574.716 21.5598 575.965 21.5598C577.215 21.5598 578.153 21.9432 578.859 22.6448C579.564 23.3464 579.875 24.3357 579.875 25.6413C579.908 26.7419 579.52 27.8136 578.79 28.6378C577.905 29.3036 576.823 29.6555 575.716 29.6378L575.725 29.6355ZM575.803 22.8739C575.1 22.8739 574.553 23.1041 574.163 23.5647C573.772 24.0258 573.537 24.7168 573.537 25.554C573.537 26.3912 573.772 27.0131 574.163 27.4746C574.553 27.9362 575.102 28.1654 575.803 28.1654C576.504 28.1654 577.052 27.9357 577.443 27.4746C577.833 27.0135 577.985 26.3985 577.985 25.4853C577.985 24.6408 577.83 23.9506 577.443 23.496C577.225 23.2867 576.967 23.1233 576.684 23.0155C576.402 22.9077 576.101 22.8576 575.799 22.8684L575.803 22.8739ZM586.033 19.4106C585.774 19.2542 585.476 19.1745 585.174 19.1808C584.315 19.1808 583.845 19.6419 583.845 20.6399V21.7165H585.642V23.0999H583.845V29.4818H582.054V23.0981H580.725V21.7146H582.054V20.4846C582.054 19.6401 582.289 19.0255 582.833 18.564C583.26 18.2361 583.76 18.0156 584.291 17.9211C584.821 17.8267 585.366 17.861 585.88 18.0211V19.4046H586.03L586.033 19.4106ZM591.194 29.3224C590.882 29.4756 590.413 29.5521 589.787 29.5521C588.225 29.5521 587.521 28.8613 587.521 27.4002V23.0223H586.192V21.6388H587.521V19.8705L589.319 19.4094V21.7151H591.194V23.0986H589.319V26.9467C589.294 27.2955 589.376 27.6438 589.554 27.9449C589.71 28.1746 590.022 28.2523 590.413 28.2523C590.691 28.2562 590.964 28.1727 591.192 28.0136V29.3192L591.194 29.3224ZM535.259 45.3561H533.226L532.21 42.591H527.833L526.894 45.3579H524.864L529.005 34.5237H531.032L535.259 45.3561ZM531.741 41.1301L530.179 36.828C530.11 36.6018 530.058 36.3709 530.024 36.1372C529.989 36.3709 529.937 36.6018 529.868 36.828L528.383 41.1301H531.741ZM542.379 38.3592L538.158 43.9653H542.377V45.3488H535.65V44.6708L540.028 38.9797H536.122V37.5962H542.451V38.3594L542.379 38.3592ZM550.808 45.3561H549.01V44.1284C548.777 44.5638 548.427 44.9247 547.998 45.1695C547.569 45.4142 547.08 45.5329 546.587 45.5119C544.712 45.5119 543.773 44.4358 543.773 42.208V37.5958H545.571V42.0518C545.571 43.4347 546.117 44.1261 547.211 44.1261C547.458 44.1361 547.705 44.0928 547.934 43.9992C548.164 43.9056 548.37 43.7638 548.54 43.5835C548.891 43.1481 549.082 42.6056 549.082 42.0463V37.5958H550.878L550.808 45.3561ZM557.685 39.2869C557.401 39.1208 557.076 39.0411 556.746 39.0571C556.203 39.0571 555.807 39.2869 555.416 39.748C555.026 40.2091 554.874 40.833 554.874 41.6686V45.3577H553.076V37.5958H554.874V39.2088C555.021 38.7154 555.29 38.2667 555.655 37.9032C555.993 37.5976 556.433 37.4327 556.892 37.4421C557.135 37.4386 557.375 37.4912 557.595 37.5958L557.685 39.2869ZM565.654 41.976H560.264C560.264 42.6668 560.499 43.2816 560.967 43.6668C561.357 44.0503 561.983 44.2816 562.764 44.2816C563.613 44.3004 564.442 44.0293 565.115 43.5131V44.8966C564.407 45.3608 563.466 45.5929 562.294 45.5929C561.789 45.6099 561.285 45.5223 560.814 45.3356C560.344 45.1489 559.917 44.8672 559.56 44.5079C558.857 43.8171 558.544 42.817 558.544 41.5114C558.507 40.433 558.897 39.3835 559.629 38.5908C559.976 38.2139 560.399 37.9159 560.871 37.7169C561.342 37.5178 561.851 37.4224 562.363 37.4371C563.448 37.4371 564.238 37.7444 564.864 38.4353C565.49 39.1261 565.723 40.0483 565.723 41.2755L565.654 41.976ZM563.935 40.746C563.935 40.1312 563.779 39.5938 563.466 39.2869C563.317 39.1026 563.125 38.957 562.908 38.8625C562.69 38.768 562.453 38.7274 562.217 38.744C561.969 38.734 561.722 38.7773 561.493 38.8709C561.264 38.9645 561.057 39.1063 560.887 39.2867C560.497 39.6701 560.345 40.1312 560.262 40.7457L563.935 40.746Z" fill="#1A1C3D"/>
</svg>
