<svg width="110" height="50" viewBox="700 8 110 50" fill="none" xmlns="http://www.w3.org/2000/svg">
<path d="M720.272 47.723V40.743C727.662 40.743 733.397 33.415 730.56 25.638C729.52 22.78 727.212 20.474 724.334 19.433C716.557 16.616 709.229 22.333 709.229 29.721H702.268C702.268 17.94 713.668 8.75597 726.008 12.614C731.398 14.308 735.704 18.594 737.378 23.984C741.236 36.334 732.05 47.723 720.272 47.723Z" fill="#1A1C3D"/>
<path fill-rule="evenodd" clip-rule="evenodd" d="M720.292 33.822V40.782H713.332V33.822H720.292ZM713.332 40.782V46.1H708.004V40.772L713.332 40.782ZM708.004 40.782H703.534V36.312H708.004V40.782Z" fill="#1A1C3D"/>
<path d="M756.022 13.867C754.442 12.754 752.422 12.215 750.122 12.215H745.095V28.195H750.168C752.466 28.195 754.468 27.62 756.068 26.435C756.93 25.835 757.612 24.963 758.115 23.885C758.582 22.808 758.833 21.515 758.833 20.115C758.833 18.715 758.583 17.458 758.115 16.381C757.612 15.304 756.93 14.441 756.032 13.867H756.022ZM748.05 14.907H749.63C751.39 14.907 752.826 15.267 753.93 15.947C755.15 16.701 755.76 18.102 755.76 20.112C755.76 22.195 755.16 23.667 753.93 24.457C752.89 25.139 751.452 25.497 749.657 25.497H748.041V14.9L748.05 14.907ZM762.306 12C761.803 12 761.408 12.18 761.049 12.503C760.885 12.6609 760.756 12.8509 760.67 13.061C760.583 13.2711 760.541 13.4968 760.546 13.724C760.546 14.227 760.726 14.622 761.049 14.981C761.372 15.304 761.803 15.484 762.306 15.484C762.773 15.4802 763.222 15.3006 763.563 14.981C763.886 14.658 764.066 14.227 764.066 13.724C764.07 13.4968 764.028 13.2711 763.942 13.061C763.855 12.8509 763.726 12.6609 763.563 12.503C763.203 12.18 762.763 12 762.306 12ZM760.868 16.92H763.705V28.195H760.868V16.92ZM774.012 17.853C773.15 17.099 772.217 16.633 771.175 16.633C769.595 16.633 768.302 17.173 767.297 18.249C766.292 19.289 765.753 20.655 765.753 22.307C765.753 23.887 766.256 25.252 767.261 26.329C768.266 27.369 769.595 27.909 771.139 27.909C772.216 27.909 773.186 27.622 773.939 27.011V27.261C773.939 28.195 773.689 28.913 773.185 29.416C772.681 29.919 772 30.17 771.138 30.17C769.845 30.17 769.018 29.667 768.014 28.303L766.074 30.17L766.11 30.242C766.54 30.817 767.15 31.392 768.013 31.93C768.839 32.47 769.916 32.756 771.173 32.756C772.861 32.756 774.225 32.253 775.231 31.212C776.237 30.171 776.739 28.806 776.739 27.118V16.884H773.939V17.854L774.012 17.853ZM773.268 24.532C772.765 25.107 772.118 25.358 771.328 25.358C770.502 25.358 769.892 25.071 769.388 24.532C768.885 23.957 768.67 23.239 768.67 22.332C768.67 21.398 768.92 20.68 769.388 20.106C769.856 19.532 770.538 19.28 771.328 19.28C772.154 19.28 772.764 19.567 773.268 20.106C773.771 20.681 774.022 21.436 774.022 22.332C774.022 23.228 773.772 23.948 773.268 24.532ZM779.218 16.92H782.055V28.195H779.218V16.92ZM780.655 12C780.152 12 779.757 12.18 779.398 12.503C779.234 12.6609 779.105 12.8509 779.019 13.061C778.932 13.2711 778.89 13.4968 778.895 13.724C778.895 14.227 779.075 14.622 779.398 14.981C779.721 15.304 780.152 15.484 780.655 15.484C781.122 15.4802 781.571 15.3006 781.912 14.981C782.235 14.658 782.415 14.227 782.415 13.724C782.419 13.4968 782.377 13.2711 782.291 13.061C782.204 12.8509 782.075 12.6609 781.912 12.503C781.552 12.18 781.158 12 780.655 12ZM788.268 13.867H785.468V16.919H783.852V19.504H785.468V24.172C785.468 25.644 785.755 26.686 786.33 27.296C786.905 27.906 787.946 28.194 789.382 28.194L790.747 28.158H790.891V25.573L789.921 25.609C789.239 25.609 788.808 25.501 788.591 25.249C788.374 24.997 788.268 24.496 788.268 23.742V19.47H790.925V16.885H788.268V13.87V13.867ZM804.211 12.18H807.048V28.195H804.211V12.18Z" fill="#1A1C3D"/>
<path d="M800.656 17.78C799.794 17.062 798.609 16.667 797.136 16.667C796.202 16.667 795.306 16.882 794.516 17.267C793.762 17.627 793.044 18.272 792.576 19.062L792.612 19.098L794.442 20.822C795.196 19.637 796.022 19.206 797.135 19.206C797.735 19.206 798.212 19.35 798.607 19.673C798.967 19.996 799.182 20.391 799.182 20.893V21.433C798.464 21.218 797.782 21.11 797.099 21.11C795.699 21.11 794.549 21.433 793.699 22.08C792.849 22.727 792.406 23.696 792.406 24.917C792.406 25.994 792.766 26.82 793.519 27.467C794.273 28.067 795.171 28.401 796.249 28.401C797.327 28.401 798.332 27.971 799.265 27.216V28.15H802.065V20.896C801.957 19.566 801.525 18.49 800.665 17.772L800.656 17.78ZM795.629 23.884C795.952 23.669 796.429 23.561 796.994 23.561C797.676 23.561 798.394 23.705 799.149 23.956V25.069C798.549 25.644 797.713 25.931 796.707 25.931C796.204 25.931 795.845 25.823 795.557 25.608C795.431 25.5106 795.33 25.3852 795.261 25.2418C795.193 25.0984 795.159 24.9409 795.162 24.782C795.152 24.6041 795.19 24.4268 795.272 24.2688C795.354 24.1108 795.477 23.9778 795.629 23.884Z" fill="#1A1C3D"/>
</svg>
