<svg width="80" height="34" viewBox="936 14 80 34" fill="none" xmlns="http://www.w3.org/2000/svg">
<path d="M936.092 14.33V16.474H951.342V14.33H936.092ZM953.504 14.33V16.474H975.238C975.238 16.474 973.018 14.33 970.078 14.33H953.504ZM979.501 14.33V16.474H992.648L991.868 14.33H979.501ZM1002.08 14.33L1001.3 16.474H1014.33V14.33H1002.08ZM936.092 18.5V20.644H951.342V18.5H936.092ZM953.504 18.503V20.643H977.758C977.758 20.643 977.475 18.993 976.981 18.503H953.504ZM979.501 18.503V20.643H994.101L993.379 18.503H979.501ZM1000.51 18.503L999.793 20.643H1014.32V18.503H1000.51ZM940.475 22.67V24.817H947.08V22.67H940.475ZM957.887 22.67V24.817H964.492V22.67H957.887ZM970.917 22.67V24.817H977.522C977.522 24.817 977.942 23.683 977.942 22.67H970.917ZM983.885 22.67V24.817H995.585L994.805 22.67H983.885ZM999.078 22.67L998.294 24.817H1010.06V22.67H999.078ZM940.476 26.843V28.987H947.081V26.843H940.476ZM957.888 26.843V28.987H974.758C974.758 28.987 976.168 27.887 976.618 26.843H957.888ZM983.885 26.843V28.987H990.49V27.793L990.91 28.987H1003.01L1003.46 27.793V28.987H1010.06V26.843H997.665L997.007 28.659L996.347 26.843H983.885ZM940.475 31.013V33.157H947.08V31.013H940.475ZM957.887 31.013V33.157H976.617C976.167 32.117 974.757 31.013 974.757 31.013H957.887ZM983.884 31.013V33.157H990.489V31.013H983.884ZM991.689 31.013L992.489 33.157H1001.56L1002.32 31.013H991.689ZM1003.46 31.013V33.157H1010.06V31.013H1003.46ZM940.477 35.183V37.327H947.082V35.183H940.477ZM957.889 35.183V37.327H964.494V35.183H957.889ZM970.919 35.183V37.327H977.943C977.943 36.315 977.523 35.183 977.523 35.183H970.919ZM983.887 35.183V37.327H990.492V35.183H983.887ZM993.191 35.183L993.965 37.327H1000.04L1000.82 35.183H993.191ZM1003.46 35.183V37.327H1010.06V35.183H1003.46ZM936.214 39.353V41.5H951.464V39.353H936.214ZM953.507 39.353V41.5H976.985C977.479 41.008 977.762 39.353 977.762 39.353H953.507ZM979.623 39.353V41.5H990.488V39.353H979.623ZM994.693 39.353L995.489 41.5H998.583L999.33 39.353H994.693ZM1003.46 39.353V41.5H1014.45V39.353H1003.46ZM936.214 43.526V45.67H951.464V43.526H936.214ZM953.507 43.526V45.666H970.078C973.018 45.666 975.238 43.526 975.238 43.526H953.507ZM979.623 43.526V45.67H990.488V43.526H979.623ZM996.203 43.526L996.968 45.664L997.1 45.667L997.877 43.527L996.203 43.526ZM1003.46 43.526V45.67H1014.45V43.526H1003.46Z" fill="#1A1C3D"/>
</svg>
