<svg width="108" height="48" viewBox="263 6 108 48" fill="none" xmlns="http://www.w3.org/2000/svg">
<path fill-rule="evenodd" clip-rule="evenodd" d="M271.132 42.616V33.77L277.168 35.827V44.783L271.132 42.616ZM284.31 42.616V33.77L278.274 35.827V44.783L284.31 42.616ZM277.86 31.388L283.524 33.214L277.86 35.137L271.76 33.107L277.86 31.388ZM263.945 30.258V21.4L269.981 23.456V32.412L263.945 30.258ZM277.125 30.257V21.4L271.089 23.456V32.412L277.125 30.257ZM270.675 19.027L276.339 20.854L270.675 22.777L264.575 20.747L270.675 19.027ZM278.03 30.257V21.4L284.066 23.456V32.412L278.03 30.257ZM291.208 30.257V21.4L285.172 23.456V32.412L291.208 30.257ZM284.768 19.027L290.432 20.854L284.768 22.777L278.668 20.747L284.768 19.027ZM285.226 17.897V9.05004L291.262 11.107V20.062L285.226 17.897ZM298.396 17.896V9.05004L292.36 11.107V20.062L298.396 17.896ZM291.945 6.67004L297.609 8.49604L291.945 10.419L285.845 8.38904L291.945 6.67004ZM299.3 17.897V9.05004L305.336 11.107V20.062L299.3 17.897ZM312.468 17.897V9.05004L306.432 11.107V20.062L312.468 17.897ZM306.028 6.67004L311.692 8.49604L306.028 10.419L299.928 8.38904L306.028 6.67004Z" fill="#1A1C3D"/>
<path d="M302.266 39.0181L300.238 46.062H299.358L297.758 40.8301L296.31 46.062H295.412L293.305 39.0181H294.405L295.94 44.2681L297.4 39.0181H298.204L299.792 44.284L301.37 39.0181H302.255H302.266ZM307.874 43.96L308.894 44.16C308.706 44.7645 308.325 45.2901 307.808 45.655C307.268 46.05 306.636 46.2471 305.908 46.2471C304.948 46.2471 304.17 45.909 303.576 45.231C302.982 44.553 302.676 43.6661 302.676 42.5681C302.676 41.4461 302.976 40.54 303.602 39.848C303.889 39.5142 304.246 39.2481 304.648 39.0688C305.05 38.8895 305.487 38.8015 305.927 38.8111C306.847 38.8111 307.585 39.129 308.145 39.766C308.705 40.403 308.991 41.3541 309.005 42.6221H303.892C303.892 43.6871 304.114 44.406 304.56 44.778C305.006 45.15 305.476 45.336 305.972 45.336C306.867 45.336 307.498 44.8741 307.864 43.9491L307.874 43.96ZM307.814 41.8161C307.804 41.4211 307.74 41.0701 307.619 40.7631C307.498 40.4561 307.294 40.195 307.006 39.979C306.718 39.763 306.373 39.655 305.969 39.655C305.71 39.6509 305.454 39.7009 305.216 39.8018C304.978 39.9027 304.764 40.0524 304.588 40.2411C304.21 40.6411 303.988 41.1561 303.951 41.8161H307.813H307.814ZM310.984 46.062H310.457V36.562H311.554V40.202C312.054 39.289 312.754 38.8321 313.627 38.8321C314.433 38.8321 315.109 39.1521 315.654 39.7891C316.199 40.4261 316.471 41.3531 316.471 42.5671C316.471 43.6141 316.201 44.492 315.667 45.202C315.133 45.912 314.433 46.267 313.575 46.267C312.619 46.267 311.875 45.8131 311.375 44.9071L310.975 46.072L310.984 46.062ZM311.554 43.302C311.604 44.025 311.827 44.55 312.219 44.876C312.611 45.202 313.026 45.376 313.463 45.376C314.02 45.376 314.469 45.1341 314.811 44.6501C315.153 44.1661 315.323 43.503 315.323 42.662C315.323 41.755 315.158 41.042 314.829 40.522C314.5 40.002 314.042 39.744 313.457 39.744C312.997 39.744 312.583 39.929 312.213 40.298C311.843 40.667 311.613 41.145 311.555 41.73V43.3L311.554 43.302ZM319.267 44.236L320.313 44.0201C320.545 44.9051 321.281 45.347 322.517 45.347C322.972 45.347 323.359 45.2451 323.675 45.041C323.824 44.9527 323.946 44.8261 324.03 44.6743C324.113 44.5226 324.155 44.3512 324.15 44.1781C324.15 43.6281 323.747 43.278 322.942 43.128L321.459 42.8461C320.879 42.7341 320.416 42.516 320.072 42.19C319.728 41.864 319.557 41.435 319.557 40.89C319.557 40.29 319.791 39.8061 320.261 39.4081C320.731 39.0101 321.361 38.812 322.156 38.812C323.684 38.812 324.626 39.409 324.986 40.604L323.982 40.82C323.694 40.09 323.102 39.723 322.207 39.723C321.761 39.723 321.395 39.8231 321.11 39.9971C320.976 40.0746 320.866 40.1866 320.791 40.3214C320.715 40.4561 320.678 40.6087 320.682 40.7631C320.682 41.2811 321.047 41.6061 321.776 41.7411L323.146 41.993C324.582 42.253 325.299 42.9501 325.299 44.0811C325.305 44.3883 325.235 44.6924 325.095 44.966C324.955 45.2396 324.75 45.4743 324.497 45.649C323.963 46.047 323.252 46.2471 322.363 46.2471C320.693 46.2471 319.663 45.5731 319.267 44.2271V44.236ZM331.133 43.96L332.153 44.16C331.968 44.762 331.606 45.26 331.067 45.655C330.528 46.05 329.895 46.2471 329.167 46.2471C328.207 46.2471 327.429 45.909 326.835 45.231C326.241 44.553 325.935 43.6661 325.935 42.5681C325.935 41.4461 326.243 40.54 326.861 39.848C327.148 39.5142 327.505 39.2481 327.907 39.0688C328.309 38.8895 328.746 38.8015 329.186 38.8111C330.104 38.8111 330.844 39.129 331.403 39.766C331.962 40.403 332.249 41.3541 332.263 42.6221H327.151C327.151 43.6871 327.373 44.406 327.818 44.778C328.263 45.15 328.734 45.336 329.231 45.336C330.126 45.336 330.757 44.8741 331.123 43.9491L331.133 43.96ZM331.073 41.8161C331.063 41.4211 330.998 41.0701 330.878 40.7631C330.758 40.4561 330.554 40.195 330.266 39.979C329.978 39.763 329.633 39.655 329.229 39.655C328.97 39.6507 328.714 39.7006 328.476 39.8016C328.238 39.9025 328.023 40.0522 327.847 40.2411C327.469 40.6411 327.247 41.1561 327.211 41.8161H331.073ZM334.55 46.062H333.453V39.0181H334.413V40.66C334.753 39.89 335.093 39.3921 335.433 39.1651C335.773 38.9381 336.133 38.8231 336.481 38.8231C336.625 38.8251 336.769 38.8337 336.913 38.849V39.8951H336.691C336.088 39.8951 335.587 40.1191 335.188 40.5671C334.789 41.0151 334.576 41.604 334.548 42.333V46.063L334.55 46.062ZM343.73 39.0181L341.298 46.062H340.161L337.648 39.0181H338.862L340.817 44.743L342.757 39.0181H343.73ZM345.78 36.55V37.767H344.608V36.55H345.782H345.78ZM345.754 39.017V46.0611H344.668V39.017H345.765H345.754ZM351.488 43.5951L352.475 43.7691C352.335 44.5471 352.027 45.156 351.549 45.597C351.071 46.038 350.474 46.257 349.749 46.257C348.779 46.257 348.049 45.897 347.529 45.182C347.009 44.467 346.766 43.582 346.766 42.557C346.766 41.487 347.034 40.5971 347.571 39.8871C348.108 39.1771 348.838 38.822 349.771 38.822C350.537 38.822 351.151 39.052 351.614 39.522C352.077 39.992 352.364 40.572 352.474 41.3L351.487 41.488C351.301 40.325 350.74 39.744 349.802 39.744C349.522 39.7346 349.244 39.8013 348.999 39.9369C348.754 40.0724 348.55 40.2719 348.41 40.514C348.085 41.027 347.922 41.692 347.922 42.51C347.922 43.41 348.082 44.1101 348.406 44.6101C348.545 44.845 348.745 45.0384 348.984 45.1701C349.223 45.3018 349.494 45.3671 349.767 45.3591C350.672 45.3591 351.245 44.775 351.487 43.606L351.488 43.5951ZM358.664 43.96L359.684 44.16C359.496 44.7645 359.115 45.2901 358.598 45.655C358.058 46.05 357.426 46.2471 356.698 46.2471C355.738 46.2471 354.958 45.909 354.365 45.231C353.772 44.553 353.465 43.6661 353.465 42.5681C353.465 41.4461 353.765 40.54 354.391 39.848C354.678 39.5142 355.035 39.2481 355.437 39.0688C355.839 38.8895 356.276 38.8015 356.716 38.8111C357.636 38.8111 358.376 39.129 358.934 39.766C359.492 40.403 359.78 41.3541 359.794 42.6221H354.682C354.682 43.6871 354.904 44.406 355.35 44.778C355.796 45.15 356.266 45.336 356.762 45.336C357.657 45.336 358.288 44.8741 358.654 43.9491L358.664 43.96ZM358.604 41.8161C358.594 41.4211 358.53 41.0701 358.409 40.7631C358.283 40.4492 358.071 40.1773 357.797 39.979C357.509 39.763 357.164 39.655 356.76 39.655C356.501 39.6504 356.245 39.7002 356.007 39.8011C355.77 39.9021 355.556 40.052 355.38 40.2411C355.004 40.6411 354.78 41.1561 354.743 41.8161H358.605H358.604ZM360.424 44.236L361.47 44.0201C361.702 44.9051 362.437 45.347 363.674 45.347C364.129 45.347 364.514 45.2451 364.832 45.041C364.981 44.9526 365.103 44.8259 365.186 44.6742C365.27 44.5224 365.311 44.3511 365.306 44.1781C365.306 43.6281 364.903 43.278 364.099 43.128L362.616 42.8461C362.036 42.7341 361.573 42.516 361.229 42.19C360.885 41.864 360.714 41.435 360.714 40.89C360.714 40.29 360.948 39.8061 361.418 39.4081C361.888 39.0101 362.518 38.812 363.313 38.812C364.841 38.812 365.783 39.409 366.143 40.604L365.139 40.82C364.851 40.09 364.259 39.723 363.364 39.723C362.918 39.723 362.564 39.8231 362.267 39.9971C362.133 40.0746 362.023 40.1866 361.948 40.3214C361.872 40.4561 361.835 40.6087 361.839 40.7631C361.839 41.2811 362.204 41.6061 362.933 41.7411L364.303 41.993C365.739 42.253 366.456 42.9501 366.456 44.0811C366.462 44.3883 366.392 44.6924 366.252 44.966C366.112 45.2396 365.907 45.4743 365.654 45.649C365.12 46.047 364.409 46.2471 363.52 46.2471C361.852 46.2471 360.82 45.5731 360.425 44.2271L360.424 44.236Z" fill="#1A1C3D" stroke="#1A1C3D" stroke-width="0.213"/>
</svg>
