<svg width="11" height="11" viewBox="0 0 11 11" fill="none" xmlns="http://www.w3.org/2000/svg">
<g clip-path="url(#clip0_1707_16329)">
<path d="M7.16241 4.73975C8.50012 4.73996 9.58429 5.82485 9.58429 7.1626C9.58407 8.50017 8.49998 9.58426 7.16241 9.58447C5.82466 9.58447 4.73978 8.5003 4.73956 7.1626C4.73956 5.82471 5.82453 4.73975 7.16241 4.73975ZM8.30206 6.42529C8.2438 6.2608 8.06324 6.17465 7.89874 6.23291C7.6958 6.30489 7.50741 6.43975 7.34796 6.57959C7.18518 6.72237 7.03357 6.88632 6.90656 7.03857C6.84499 7.11237 6.78845 7.18469 6.73761 7.25146C6.70047 7.2167 6.66322 7.18722 6.62628 7.1626C6.55937 7.11799 6.46427 7.05719 6.31964 7.05713C6.14526 7.05713 6.00344 7.19823 6.00323 7.37256C6.00323 7.53043 6.11954 7.66155 6.27081 7.68506C6.29448 7.70089 6.37201 7.76257 6.45831 7.93506C6.50924 8.03692 6.61118 8.10404 6.72491 8.10986C6.83847 8.11555 6.94613 8.05934 7.00714 7.96338C7.07569 7.86627 7.27791 7.58056 7.39191 7.44385C7.50647 7.30651 7.63506 7.16811 7.76495 7.0542C7.89778 6.93775 8.01556 6.86207 8.10968 6.82861C8.27409 6.77039 8.36013 6.58972 8.30206 6.42529Z" fill="#525866"/>
<path opacity="0.4" d="M5.88723 0.526611C6.21171 0.526606 6.47799 0.526602 6.6971 0.548134C6.92656 0.570684 7.1289 0.618576 7.32042 0.728766C7.51197 0.838976 7.65497 0.989794 7.78958 1.17678C7.91807 1.35527 8.05152 1.5853 8.21407 1.8655L9.04012 3.28933C9.20332 3.57063 9.3373 3.80154 9.42871 4.00239C9.52448 4.21279 9.58448 4.41253 9.58448 4.63425C9.58448 4.81991 9.5424 4.99017 9.47249 5.16418C8.91242 4.51704 8.08504 4.10763 7.16203 4.10763C7.0308 4.10763 6.90151 4.11591 6.77464 4.13196C6.55752 3.38759 5.87004 2.84374 5.05555 2.84374C4.06668 2.84374 3.26504 3.64538 3.26504 4.63425C3.26504 5.33381 3.66622 5.93966 4.25107 6.23429C4.15791 6.52687 4.10763 6.83858 4.10763 7.16203C4.10763 7.74024 4.2683 8.28093 4.54743 8.74189H4.22389C3.89939 8.74189 3.63311 8.7419 3.414 8.72037C3.18453 8.69782 2.98219 8.64992 2.79068 8.53973C2.59912 8.42952 2.45613 8.27871 2.32152 8.09172C2.19302 7.91322 2.05957 7.68319 1.89701 7.40298L1.07099 5.97919C0.907779 5.69789 0.7738 5.46696 0.68238 5.26611C0.586618 5.05572 0.526611 4.85597 0.526611 4.63425C0.526611 4.41253 0.586618 4.21279 0.68238 4.00239C0.7738 3.80154 0.907779 3.57061 1.07098 3.28931L1.89703 1.86549C2.05958 1.5853 2.19302 1.35527 2.32152 1.17678C2.45613 0.989794 2.59912 0.838976 2.79068 0.728766C2.98219 0.618576 3.18453 0.570684 3.414 0.548134C3.6331 0.526602 3.89939 0.526606 4.22388 0.526611H5.88723Z" fill="#525866"/>
</g>
<defs>
<clipPath id="clip0_1707_16329">
<rect width="10.1111" height="10.1111" fill="white"/>
</clipPath>
</defs>
</svg>
